<svg width="3194" height="2655" viewBox="0 0 3194 2655" fill="none" xmlns="http://www.w3.org/2000/svg">
<path d="M1356.57 2091.52C1356.57 2313.69 1201.56 2505.86 976.347 2597.43C886.451 2633.98 785.383 2654.5 678.541 2654.5C303.985 2654.5 0.507812 2402.36 0.507812 2091.52C0.507812 1780.68 303.985 1528.54 678.541 1528.54C1053.1 1528.54 1356.57 1780.67 1356.57 2091.52Z" fill="#006CEB" stroke="#0038FF"/>
<mask id="mask0_473_2" style="mask-type:luminance" maskUnits="userSpaceOnUse" x="0" y="1220" width="2172" height="1435">
<path d="M1050.13 2562.6L1049.97 2562.58L1049.83 2562.66C943.174 2620.72 815.608 2654.49 678.533 2654.49C303.977 2654.49 0.5 2402.35 0.5 2091.51C0.5 1936.04 76.3997 1718.31 199.151 1539.43C321.911 1360.55 491.413 1220.69 678.533 1220.69C772.13 1220.69 910.753 1253.67 1066.08 1308.03C1221.38 1362.39 1393.34 1438.11 1553.59 1523.56C1713.84 1609 1862.37 1704.16 1970.82 1797.4C2025.05 1844.02 2069.24 1890.14 2099.88 1934.31C2130.52 1978.49 2147.56 2020.68 2147.56 2059.44C2147.56 2084.15 2151.97 2113.33 2156.97 2145.09C2157.24 2146.81 2157.51 2148.54 2157.79 2150.28C2162.57 2180.59 2167.71 2213.14 2169.99 2246.37C2174.82 2316.66 2166.89 2389.94 2115.98 2451.51C2065.06 2513.1 1971.06 2563.07 1803.52 2586.55C1635.98 2610.02 1394.97 2606.98 1050.13 2562.6Z" fill="white" stroke="white"/>
</mask>
<g mask="url(#mask0_473_2)">
<path d="M1014.69 2343.14L1014.76 2343.2L1014.86 2343.24L1015.02 2342.76C1014.86 2343.24 1014.86 2343.24 1014.86 2343.24L1014.87 2343.24L1014.89 2343.25L1014.98 2343.28L1015.33 2343.39L1015.69 2343.51C1015.96 2343.61 1016.3 2343.72 1016.7 2343.86C1017.92 2344.26 1019.71 2344.87 1022.05 2345.66C1026.71 2347.23 1033.52 2349.53 1042.08 2352.44C1059.21 2358.26 1083.38 2366.51 1111.53 2376.26C1167.73 2395.71 1239.78 2421.1 1303.41 2444.88L1292.4 2529.23L1291.86 2529.17L1290.76 2529.05L1288.86 2528.84C1286.22 2528.54 1282.36 2528.11 1277.41 2527.55C1267.53 2526.44 1253.34 2524.84 1236.15 2522.88C1201.75 2518.95 1155.32 2513.6 1107.15 2507.86C1010.79 2496.37 907.537 2483.37 879.794 2477.25C866.112 2474.24 852.822 2461.25 840.564 2443.27C828.325 2425.33 817.192 2402.53 807.785 2380.09C798.38 2357.66 790.708 2335.61 785.387 2319.16C782.727 2310.94 780.655 2304.12 779.247 2299.35C778.544 2296.97 778.007 2295.1 777.646 2293.83C777.477 2293.24 777.347 2292.78 777.256 2292.45L969.263 2271.03C969.298 2271.11 969.34 2271.2 969.388 2271.31C969.569 2271.7 969.838 2272.29 970.188 2273.03C970.887 2274.53 971.909 2276.69 973.202 2279.34C975.789 2284.64 979.462 2291.91 983.807 2299.77C992.485 2315.47 1003.88 2333.61 1014.69 2343.14Z" fill="#EA9686" stroke="#0038FF"/>
<path d="M1405.77 2424.32L1405.88 2423.83L1405.25 2423.69L1405.27 2424.34L1405.77 2424.32ZM1405.77 2424.32C1405.27 2424.34 1405.27 2424.34 1405.27 2424.34L1405.27 2424.34L1405.27 2424.34L1405.27 2424.36L1405.27 2424.45C1405.27 2424.53 1405.28 2424.65 1405.28 2424.8C1405.29 2425.11 1405.3 2425.57 1405.3 2426.15C1405.31 2427.32 1405.32 2429 1405.28 2431.07C1405.21 2435.22 1404.98 2440.89 1404.35 2447.03C1403.72 2453.17 1402.68 2459.76 1401.01 2465.74C1399.36 2471.64 1397.1 2476.89 1394.02 2480.53H1293.24L1279.56 2416.05C1279.57 2416.02 1279.59 2415.98 1279.62 2415.94C1279.71 2415.77 1279.85 2415.53 1280.03 2415.23C1280.4 2414.63 1280.95 2413.82 1281.67 2413C1283.11 2411.33 1285.18 2409.64 1287.77 2409.28C1289.16 2409.09 1296.84 2407.6 1307.69 2405.49C1318.5 2403.39 1332.47 2400.68 1346.53 2398.03C1360.65 2395.37 1374.88 2392.76 1386.16 2390.88C1391.81 2389.94 1396.71 2389.18 1400.5 2388.69C1402.39 2388.44 1404 2388.26 1405.27 2388.16C1406.56 2388.05 1407.48 2388.03 1408.02 2388.09C1410.28 2388.32 1414.02 2389.67 1418.5 2391.7C1422.96 2393.72 1428.09 2396.37 1433.09 2399.15C1438.1 2401.93 1442.97 2404.84 1446.91 2407.36C1450.86 2409.88 1453.84 2412 1455.09 2413.2C1456.2 2414.27 1456.46 2415.9 1455.94 2417.86C1455.42 2419.82 1454.15 2422 1452.36 2424.01C1448.78 2428.03 1443.29 2431.15 1438.1 2430.33C1432.69 2429.47 1424.63 2427.85 1417.93 2426.44C1414.58 2425.73 1411.56 2425.08 1409.39 2424.61C1408.3 2424.37 1407.42 2424.17 1406.82 2424.04C1406.51 2423.97 1406.28 2423.92 1406.12 2423.89L1405.94 2423.85L1405.89 2423.83L1405.88 2423.83L1405.88 2423.83L1405.88 2423.83C1405.88 2423.83 1405.88 2423.83 1405.77 2424.32Z" fill="#EA9686" stroke="#0038FF"/>
<path d="M1169.39 2511.93H1850.91V2533.96H1169.39V2511.93Z" fill="#006CEB" stroke="#0038FF"/>
<path d="M811.18 2533.96V2511.93H1179.28L1173.53 2533.96H811.18Z" fill="#00C4EF" stroke="#0038FF"/>
<path d="M1851.04 2510.93H1152.89L1287.5 2101.29H1963.73L1980.34 2117.48L1851.04 2510.93Z" fill="#2657A0" stroke="#0038FF"/>
<path d="M1179.56 2510.93H1152.89L1287.4 2101.6L1308.87 2117.44L1179.56 2510.93Z" fill="#00C4EF" stroke="#0038FF"/>
<path d="M1963.73 2101.29L1979.67 2116.84H1309.62L1288.65 2101.29H1963.73Z" fill="#006CEB" stroke="#0038FF"/>
<path d="M1656.58 2325.58C1656.58 2332.2 1651.5 2338.31 1643.04 2342.79C1634.59 2347.26 1622.89 2350.04 1609.94 2350.04C1596.98 2350.04 1585.28 2347.26 1576.84 2342.79C1568.37 2338.31 1563.3 2332.2 1563.3 2325.58C1563.3 2318.96 1568.37 2312.85 1576.84 2308.37C1585.28 2303.89 1596.98 2301.11 1609.94 2301.11C1622.89 2301.11 1634.59 2303.89 1643.04 2308.37C1651.5 2312.85 1656.58 2318.96 1656.58 2325.58Z" fill="#00C4EF" stroke="#0038FF"/>
<path d="M827.787 1821.13V1821.13C827.794 1830.31 818.797 1837.91 807.485 1837.91H703.451C692.146 1837.91 683.148 1830.31 683.148 1821.13V1696.15C683.148 1686.97 692.146 1679.37 703.451 1679.37H807.485C818.789 1679.37 827.787 1686.97 827.787 1696.15V1821.13Z" fill="#0F2B47" stroke="#0038FF"/>
<path d="M809.92 1821.13V1821.13C809.927 1830.31 800.923 1837.91 789.618 1837.91H685.584C674.279 1837.91 665.281 1830.31 665.281 1821.13V1696.15C665.281 1686.97 674.279 1679.37 685.584 1679.37H789.618C800.922 1679.37 809.92 1686.97 809.92 1696.15V1821.13Z" fill="#0C426F" stroke="#0038FF"/>
<path d="M762.276 1813.33H689.098C681.661 1813.33 675.797 1808.34 675.797 1802.37V1714.91C675.797 1708.94 681.661 1703.95 689.098 1703.95H762.276C769.713 1703.95 775.577 1708.94 775.577 1714.91V1802.37C775.577 1808.34 769.713 1813.33 762.276 1813.33Z" fill="#007CEF" stroke="#0038FF"/>
<path d="M721.459 1992.73L721.472 1992.73C749.775 1983.29 780.958 1995.15 811.907 2018.46C842.84 2041.76 873.42 2076.4 900.454 2112.27C927.483 2148.12 950.95 2185.17 967.659 2213.26C976.014 2227.31 982.679 2239.11 987.255 2247.4C989.542 2251.54 991.308 2254.81 992.501 2257.04C993.098 2258.16 993.552 2259.01 993.856 2259.59C993.934 2259.74 994.002 2259.87 994.061 2259.98L762.858 2354.18C762.792 2353.99 762.708 2353.75 762.606 2353.46C762.325 2352.66 761.905 2351.47 761.355 2349.92C760.253 2346.82 758.626 2342.26 756.522 2336.44C752.314 2324.81 746.199 2308.14 738.571 2288.01C723.315 2247.74 702.007 2193.6 677.796 2138.11C665.033 2108.85 661.41 2085.15 663.126 2066.06C664.841 2046.97 671.895 2032.47 680.533 2021.62C689.176 2010.75 699.412 2003.53 707.492 1999.02C711.532 1996.77 715.029 1995.19 717.514 1994.18C718.757 1993.68 719.746 1993.31 720.423 1993.08C720.762 1992.96 721.022 1992.87 721.197 1992.82C721.285 1992.79 721.351 1992.77 721.395 1992.75L721.444 1992.74L721.456 1992.73L721.458 1992.73C721.459 1992.73 721.459 1992.73 721.314 1992.25L721.459 1992.73Z" fill="#66A5D3" stroke="#0038FF"/>
<path d="M886.151 2654.49H292.267C314.122 2518.55 319.147 2353.63 318.705 2222.65C318.484 2157.06 316.892 2099.97 315.356 2059.28C314.588 2038.94 313.833 2022.69 313.271 2011.53C312.989 2005.95 312.756 2001.64 312.593 1998.73C312.512 1997.27 312.448 1996.16 312.405 1995.42C312.39 1995.17 312.378 1994.97 312.368 1994.8L495.888 1984.8L731.8 1990.92C731.838 1990.99 731.884 1991.07 731.937 1991.16C732.121 1991.48 732.396 1991.96 732.757 1992.61C733.48 1993.91 734.548 1995.88 735.93 1998.57C738.692 2003.95 742.706 2012.2 747.704 2023.68C757.698 2046.64 771.628 2082.5 787.357 2134.09C818.79 2237.2 857.406 2403.14 886.151 2654.49Z" fill="#346370" stroke="#0038FF"/>
<path d="M764.342 2532.53C764.893 2533.13 765.342 2533.63 765.678 2534L305.467 2550.36C308.992 2514.22 311.67 2477.26 313.656 2440.41L324.828 2434.7L325.182 2434.71C325.5 2434.72 325.973 2434.73 326.592 2434.75C327.829 2434.78 329.65 2434.83 331.985 2434.9C336.655 2435.03 343.381 2435.23 351.602 2435.48C368.046 2435.99 390.474 2436.74 414.414 2437.69C462.306 2439.59 516.209 2442.3 540.368 2445.56C564.551 2448.81 602.134 2454.24 635.466 2459.8C652.133 2462.58 667.732 2465.4 680.061 2467.99C686.226 2469.29 691.568 2470.53 695.815 2471.68C700.074 2472.84 703.193 2473.89 704.936 2474.82C708.463 2476.68 714.064 2481.34 720.52 2487.34C726.959 2493.32 734.203 2500.58 741.002 2507.62C747.799 2514.65 754.149 2521.44 758.799 2526.48C761.124 2529 763.024 2531.08 764.342 2532.53Z" fill="#3995AA" stroke="#0038FF"/>
<path d="M508.974 1994.79L516.152 1890.27L640.143 1893.72L637.106 1999.08C636.396 2023.86 615.085 2045.03 585.633 2049.94C565.02 2053.38 545.243 2048.26 530.928 2037.94C516.614 2027.62 507.784 2012.13 508.974 1994.79Z" fill="#EA9686" stroke="#0038FF"/>
<path d="M553.719 1918.38L553.879 1918.33H592.999L628.233 1930.27L638.275 1955.39C638.252 1955.41 638.227 1955.43 638.201 1955.46C637.996 1955.65 637.679 1955.94 637.237 1956.31C636.353 1957.05 634.968 1958.11 632.98 1959.35C629.003 1961.84 622.611 1965.09 612.984 1968.08C593.79 1974.04 561.736 1978.98 510.337 1974.88L513.326 1931.34C523.806 1927.57 533.914 1924.33 541.426 1922.02C545.219 1920.85 548.349 1919.93 550.531 1919.29C551.622 1918.98 552.476 1918.73 553.057 1918.57C553.347 1918.48 553.569 1918.42 553.719 1918.38Z" fill="#E28174" stroke="#0038FF"/>
<path d="M979.686 2533.96H800.773V2464.73H914.166C950.44 2464.73 979.686 2489.14 979.686 2519.06V2533.96Z" fill="white" stroke="#0038FF"/>
<path d="M709.845 1557.63L710.053 1557.26L767.798 1541.99C767.804 1542 767.811 1542.01 767.818 1542.01C767.965 1542.16 768.182 1542.38 768.464 1542.67C769.027 1543.24 769.847 1544.1 770.87 1545.21C772.916 1547.44 775.776 1550.69 779.028 1554.79C785.532 1562.99 793.595 1574.56 799.84 1588.07C812.331 1615.09 817.526 1649.76 788.607 1680.78C749.007 1723.26 716.587 1736.24 694.357 1735.56C672.109 1734.89 660.104 1720.58 660.888 1708.36C661.212 1703.3 661.439 1697.63 661.677 1691.64C662.036 1682.66 662.422 1672.98 663.212 1663.57C664.527 1647.91 666.951 1633.24 672.146 1624.29C677.407 1615.22 686.91 1598.41 695.097 1583.88C699.19 1576.61 702.955 1569.91 705.697 1565.03C707.068 1562.59 708.183 1560.6 708.955 1559.22L709.845 1557.63Z" fill="#133B56" stroke="#0038FF"/>
<path d="M383.491 1694.69L383.824 1694.62L383.882 1694.29L403.512 1582.12H761.113C761.137 1582.23 761.166 1582.36 761.199 1582.5C761.313 1583.01 761.481 1583.77 761.696 1584.75C762.125 1586.73 762.741 1589.63 763.487 1593.36C764.979 1600.81 766.993 1611.54 769.079 1624.64C773.25 1650.85 777.707 1686.55 778.851 1724.53C779.995 1762.52 777.825 1802.77 768.756 1838.09C759.685 1873.4 743.729 1903.72 717.349 1921.94C611.591 1994.97 460.548 1958.3 361.025 1825.6L345.585 1702.56L383.491 1694.69Z" fill="#F5B8A5" stroke="#0038FF"/>
<path d="M768.26 1620.62C768.125 1620.72 767.952 1620.86 767.742 1621.02C767.143 1621.47 766.235 1622.12 765.004 1622.94C762.54 1624.59 758.78 1626.89 753.602 1629.54C743.246 1634.83 727.219 1641.48 704.553 1646.88C659.222 1657.7 587.325 1663.54 481.127 1643.63L480.659 1643.54L480.549 1644.01L480.549 1644.01L480.548 1644.01L480.544 1644.03L480.53 1644.08C480.516 1644.14 480.496 1644.22 480.468 1644.32C480.412 1644.53 480.326 1644.85 480.206 1645.25C479.967 1646.06 479.593 1647.23 479.056 1648.67C477.983 1651.56 476.262 1655.55 473.669 1659.92C468.484 1668.66 459.826 1678.92 445.923 1685.08L445.566 1685.24L445.633 1685.62L446.125 1685.54C445.633 1685.62 445.633 1685.62 445.633 1685.62L445.634 1685.63L445.637 1685.64L445.649 1685.72L445.661 1685.79C445.67 1685.84 445.682 1685.91 445.696 1685.99C445.737 1686.24 445.798 1686.61 445.876 1687.09C446.033 1688.05 446.258 1689.47 446.534 1691.28C447.087 1694.92 447.841 1700.14 448.649 1706.52C450.264 1719.29 452.094 1736.66 452.95 1755.12C453.806 1773.58 453.688 1793.1 451.414 1810.17C449.137 1827.26 444.71 1841.78 437.024 1850.33L437.396 1850.67L437.024 1850.33C427.39 1861.06 413.695 1866.8 399.365 1869.62C385.942 1856.37 373.093 1841.7 361.017 1825.6L345.577 1702.56L383.483 1694.69L383.816 1694.62L383.874 1694.29L403.505 1582.12H739.962L768.26 1620.62Z" fill="#EA9686" stroke="#0038FF"/>
<path d="M454.98 1601.67C454.493 1601.79 454.493 1601.79 454.493 1601.79L454.494 1601.79L454.497 1601.8L454.508 1601.85C454.512 1601.87 454.517 1601.89 454.522 1601.91C454.53 1601.95 454.54 1601.99 454.55 1602.04C454.588 1602.21 454.642 1602.47 454.708 1602.8C454.84 1603.47 455.02 1604.45 455.21 1605.72C455.592 1608.24 456.016 1611.87 456.186 1616.3C456.525 1625.14 455.846 1637.13 451.775 1649.72C447.705 1662.3 440.246 1675.49 427.021 1686.74C413.798 1697.99 394.784 1707.33 367.571 1712.19L305.05 1718.68C305.027 1718.61 305.001 1718.53 304.972 1718.44C304.838 1718.03 304.641 1717.43 304.389 1716.64C303.885 1715.06 303.162 1712.74 302.286 1709.79C300.535 1703.88 298.173 1695.43 295.732 1685.27C290.851 1664.93 285.658 1637.75 284.402 1610.32C283.146 1582.88 285.834 1555.27 296.66 1534.02C307.465 1512.82 326.393 1497.93 357.754 1495.93L358.05 1495.91L358.175 1495.64L357.723 1495.43C358.175 1495.64 358.175 1495.64 358.176 1495.64L358.177 1495.64L358.183 1495.62L358.21 1495.57C358.235 1495.52 358.272 1495.44 358.322 1495.34C358.423 1495.14 358.577 1494.84 358.787 1494.45C359.206 1493.67 359.85 1492.52 360.742 1491.08C362.527 1488.18 365.307 1484.08 369.281 1479.27C377.23 1469.64 389.956 1457.16 409.054 1445.79C447.24 1423.04 510.954 1404.67 612.993 1422.39C704.63 1439.02 761.567 1432.98 795.621 1422.75C812.649 1417.64 823.953 1411.48 831.008 1406.58C834.536 1404.13 837 1402 838.587 1400.48C839.38 1399.72 839.954 1399.11 840.331 1398.69C840.363 1398.65 840.394 1398.62 840.424 1398.58C840.639 1398.97 840.942 1399.53 841.3 1400.26C842.031 1401.74 842.99 1403.91 843.899 1406.61C845.717 1412.03 847.328 1419.6 846.511 1428.27C844.881 1445.55 833.573 1467.33 794.456 1484.9L794.707 1485.85L794.695 1485.72C794.707 1485.85 794.707 1485.85 794.708 1485.85L794.709 1485.85L794.716 1485.85L794.74 1485.85L794.835 1485.84C794.919 1485.83 795.044 1485.82 795.207 1485.8C795.533 1485.77 796.013 1485.72 796.63 1485.66C797.865 1485.52 799.646 1485.32 801.836 1485.05C806.217 1484.49 812.238 1483.64 818.794 1482.45C825.35 1481.25 832.448 1479.7 838.983 1477.76C845.188 1475.91 850.914 1473.7 855.188 1471.08C855.21 1471.24 855.235 1471.43 855.262 1471.64C855.373 1472.51 855.521 1473.79 855.667 1475.44C855.959 1478.72 856.247 1483.47 856.228 1489.27C856.188 1500.88 854.917 1516.73 849.994 1533.71C840.155 1567.65 815.726 1606.12 757.285 1624.23C699.967 1641.99 624.453 1636.25 563.211 1626.04C532.601 1620.94 505.578 1614.73 486.207 1609.79C476.522 1607.32 468.751 1605.17 463.402 1603.64C460.727 1602.87 458.658 1602.26 457.258 1601.84C456.558 1601.63 456.025 1601.47 455.668 1601.36C455.489 1601.3 455.354 1601.26 455.264 1601.24L455.162 1601.2L455.137 1601.2L455.131 1601.19C455.13 1601.19 455.129 1601.19 455.091 1601.32C455.069 1601.39 455.034 1601.5 454.98 1601.67ZM454.98 1601.67L454.493 1601.79L454.289 1600.93L455.129 1601.19L454.98 1601.67Z" fill="#0C426F" stroke="#0038FF"/>
<path d="M454.976 1601.68C454.49 1601.8 454.49 1601.8 454.49 1601.8L454.491 1601.8L454.493 1601.81L454.504 1601.86C454.514 1601.9 454.528 1601.97 454.547 1602.05C454.584 1602.22 454.638 1602.48 454.704 1602.81C454.836 1603.48 455.016 1604.47 455.207 1605.73C455.588 1608.25 456.013 1611.89 456.182 1616.31C456.522 1625.16 455.842 1637.14 451.771 1649.73C447.702 1662.32 440.243 1675.5 427.018 1686.75C413.795 1698 394.781 1707.34 367.568 1712.2L305.04 1718.69C305.017 1718.62 304.99 1718.54 304.961 1718.45C304.827 1718.04 304.63 1717.44 304.378 1716.65C303.874 1715.07 303.151 1712.75 302.276 1709.8C300.524 1703.89 298.163 1695.44 295.723 1685.27C290.841 1664.94 285.649 1637.75 284.394 1610.33C283.139 1582.89 285.827 1555.27 296.652 1534.03C307.457 1512.83 326.384 1497.94 357.744 1495.93L358.039 1495.92L358.164 1495.65L358.164 1495.65L358.164 1495.65L358.166 1495.65L358.17 1495.64L358.191 1495.59C358.21 1495.55 358.239 1495.49 358.278 1495.42C358.356 1495.26 358.475 1495.03 358.636 1494.72C358.96 1494.11 359.455 1493.21 360.139 1492.06C361.507 1489.77 363.63 1486.5 366.644 1482.59C372.649 1474.78 382.191 1464.41 396.341 1454.16L403.952 1454.77C403.415 1455.19 402.685 1455.78 401.795 1456.53C399.803 1458.19 397.011 1460.65 393.808 1463.82C387.405 1470.15 379.349 1479.32 372.758 1490.67C366.166 1502.01 361.029 1515.55 360.486 1530.6C359.943 1545.66 363.999 1562.21 375.744 1579.57C381.601 1588.23 386.791 1594.37 391.397 1598.49C395.999 1602.6 400.05 1604.71 403.624 1605.24C407.223 1605.77 410.281 1604.69 412.852 1602.55C415.407 1600.42 417.476 1597.24 419.158 1593.57C422.521 1586.22 424.399 1576.72 425.438 1569.09C425.959 1565.27 426.27 1561.9 426.452 1559.49C426.542 1558.29 426.601 1557.32 426.636 1556.66C426.643 1556.53 426.649 1556.41 426.654 1556.31C426.941 1556.41 427.323 1556.55 427.797 1556.72C428.97 1557.13 430.704 1557.74 432.953 1558.51C437.451 1560.04 444.007 1562.21 452.244 1564.76C468.718 1569.84 491.916 1576.42 518.818 1582.4C572.608 1594.34 641.255 1603.87 700.556 1594.14C759.861 1584.42 791.218 1562.44 807.746 1542.82C816.007 1533.02 820.554 1523.82 823.035 1517.06C824.276 1513.68 825 1510.92 825.415 1508.99C825.623 1508.02 825.753 1507.27 825.831 1506.76C825.845 1506.66 825.858 1506.57 825.869 1506.5C825.888 1506.36 825.902 1506.25 825.913 1506.17L825.915 1506.15C825.922 1506.09 825.927 1506.04 825.931 1506.01L825.935 1505.97L825.936 1505.96L825.936 1505.96C825.936 1505.96 825.936 1505.96 825.928 1505.96C825.905 1505.95 825.81 1505.94 825.439 1505.91M454.976 1601.68C455.125 1601.21 455.126 1601.21 455.127 1601.21L455.134 1601.21L455.159 1601.22L455.261 1601.25C455.351 1601.28 455.486 1601.32 455.664 1601.37C456.022 1601.48 456.555 1601.64 457.255 1601.85C458.655 1602.27 460.724 1602.89 463.398 1603.65C468.747 1605.18 476.518 1607.34 486.203 1609.8C505.573 1614.74 532.595 1620.96 563.205 1626.06C624.446 1636.26 699.96 1642.01 757.281 1624.25C815.723 1606.13 840.152 1567.66 849.991 1533.71C854.914 1516.73 856.185 1500.88 856.224 1489.27C856.244 1483.47 855.956 1478.73 855.663 1475.44C855.517 1473.79 855.37 1472.51 855.259 1471.65C855.232 1471.43 855.207 1471.24 855.185 1471.08C850.911 1473.71 845.185 1475.92 838.98 1477.76C832.445 1479.7 825.346 1481.25 818.791 1482.45C812.234 1483.65 806.214 1484.5 801.833 1485.05C799.642 1485.32 797.861 1485.52 796.627 1485.66C796.01 1485.72 795.53 1485.77 795.203 1485.8C795.04 1485.82 794.916 1485.83 794.832 1485.84L794.736 1485.85L794.712 1485.85L794.706 1485.85L794.704 1485.85C794.704 1485.85 794.704 1485.85 794.694 1485.75L794.704 1485.85L794.453 1484.9C833.569 1467.32 844.878 1445.55 846.507 1428.26C847.324 1419.6 845.713 1412.02 843.896 1406.61C842.987 1403.9 842.028 1401.74 841.297 1400.25C841.277 1400.21 841.256 1400.17 841.236 1400.13C842.51 1418.13 832.828 1434.37 817.558 1448.59C801.585 1463.47 779.423 1476.23 757.001 1486.62C734.573 1497.02 711.854 1505.07 694.745 1510.52C686.189 1513.24 679.035 1515.32 674.018 1516.71C671.755 1517.34 669.927 1517.83 668.602 1518.18C718.227 1524.71 757.162 1521.63 783.799 1516.87C797.344 1514.45 807.71 1511.59 814.686 1509.34C818.174 1508.21 820.814 1507.24 822.58 1506.55C823.464 1506.2 824.128 1505.93 824.571 1505.74C824.792 1505.65 824.958 1505.58 825.068 1505.53C825.124 1505.5 825.165 1505.48 825.192 1505.47L825.222 1505.46L825.229 1505.46L825.23 1505.45C825.231 1505.45 825.231 1505.45 825.439 1505.91M454.976 1601.68L454.49 1601.8L454.286 1600.94L455.125 1601.21L454.976 1601.68ZM825.439 1505.91L825.231 1505.45L826.019 1505.09L825.937 1505.96L825.439 1505.91Z" fill="#0D3854" stroke="#0038FF"/>
<path d="M311.861 1994.83L311.874 1994.83C342.305 1993.17 367.478 2012.49 388.148 2042.62C408.812 2072.74 424.895 2113.56 437.155 2154.62C449.412 2195.68 457.836 2236.95 463.196 2267.96C465.876 2283.47 467.79 2296.4 469.033 2305.46C469.655 2309.99 470.109 2313.55 470.408 2315.98C470.557 2317.2 470.668 2318.13 470.741 2318.75C470.761 2318.93 470.779 2319.08 470.794 2319.21L215.749 2349.01C215.756 2348.83 215.765 2348.6 215.776 2348.33C215.808 2347.5 215.855 2346.26 215.913 2344.65C216.029 2341.41 216.189 2336.66 216.368 2330.59C216.726 2318.45 217.157 2301.03 217.449 2279.92C218.034 2237.71 218.064 2180.75 215.845 2121.75L215.346 2121.77L215.845 2121.75C213.506 2059.59 237.556 2027.9 262.113 2011.72C274.407 2003.62 286.851 1999.4 296.223 1997.2C300.909 1996.1 304.824 1995.51 307.566 1995.19C308.936 1995.03 310.013 1994.94 310.746 1994.89C311.113 1994.86 311.393 1994.85 311.581 1994.84C311.675 1994.83 311.746 1994.83 311.792 1994.83L311.845 1994.83L311.858 1994.83L311.86 1994.83C311.861 1994.83 311.861 1994.83 311.847 1994.33L311.861 1994.83Z" fill="#66A5D3" stroke="#0038FF"/>
<path d="M755.524 1699.11L755.524 1699.11C757.618 1700.39 758.86 1702.24 759.21 1704.17C759.559 1706.1 759.028 1708.15 757.5 1709.87C754.404 1713.33 748.474 1714.1 744.259 1711.51C733.037 1704.62 722.943 1703.56 715.619 1704.24C711.96 1704.58 708.996 1705.36 706.931 1706.06C705.899 1706.4 705.091 1706.73 704.532 1706.98C704.253 1707.1 704.036 1707.21 703.885 1707.28C703.81 1707.32 703.751 1707.35 703.709 1707.37C703.657 1707.39 703.65 1707.4 703.65 1707.4L703.636 1707.4L703.623 1707.41C699.275 1709.83 693.378 1708.81 690.508 1705.23C689.088 1703.46 688.679 1701.39 689.144 1699.48C689.61 1697.56 690.962 1695.76 693.134 1694.56L693.134 1694.56L693.138 1694.56C693.612 1694.3 698.77 1691.53 707.01 1689.85C718.577 1687.49 736.207 1687.25 755.524 1699.11Z" fill="#0C426F" stroke="#0038FF"/>
<path d="M746.03 1746.02C746.03 1758.98 733.347 1769.63 717.499 1769.63C701.651 1769.63 688.969 1758.98 688.969 1746.02C688.969 1733.06 701.651 1722.41 717.499 1722.41C733.347 1722.41 746.03 1733.06 746.03 1746.02Z" fill="#0C426F" stroke="#0038FF"/>
<path d="M507.241 1699.11L507.242 1699.11C526.559 1687.25 544.189 1687.49 555.755 1689.85C564.005 1691.53 569.161 1694.3 569.626 1694.56L569.632 1694.56C571.804 1695.76 573.156 1697.56 573.622 1699.48C574.087 1701.39 573.678 1703.46 572.258 1705.23C569.388 1708.81 563.491 1709.83 559.143 1707.41L559.13 1707.4L559.116 1707.4C559.116 1707.4 559.109 1707.39 559.057 1707.37C559.015 1707.35 558.956 1707.32 558.881 1707.28C558.73 1707.21 558.513 1707.1 558.234 1706.98C557.675 1706.73 556.867 1706.4 555.835 1706.06C553.77 1705.36 550.806 1704.58 547.147 1704.24C539.823 1703.56 529.729 1704.62 518.507 1711.51C514.292 1714.1 508.362 1713.33 505.266 1709.87C503.738 1708.15 503.207 1706.1 503.556 1704.17C503.906 1702.24 505.148 1700.39 507.241 1699.11Z" fill="#0C426F" stroke="#0038FF"/>
<path d="M573.795 1746.02C573.795 1758.98 561.113 1769.63 545.265 1769.63C529.417 1769.63 516.734 1758.98 516.734 1746.02C516.734 1733.06 529.417 1722.41 545.265 1722.41C561.113 1722.41 573.795 1733.06 573.795 1746.02Z" fill="#0C426F" stroke="#0038FF"/>
<path d="M649.152 1719.84C649.153 1719.85 649.155 1719.87 649.157 1719.89C649.19 1720.17 649.24 1720.58 649.31 1721.12C649.45 1722.19 649.669 1723.75 649.985 1725.7C650.619 1729.6 651.643 1735.08 653.209 1741.37C656.338 1753.96 661.636 1769.86 670.313 1783.02C675.868 1791.45 677.111 1798.71 675.6 1804.53C674.088 1810.36 669.793 1814.84 664.06 1817.68C652.568 1823.36 635.481 1822.3 624.254 1812.15C621.416 1809.59 619.444 1807.52 618.178 1805.84C616.901 1804.15 616.392 1802.93 616.368 1802.04C616.346 1801.22 616.741 1800.61 617.58 1800.1C618.446 1799.58 619.734 1799.2 621.358 1798.91C622.972 1798.61 624.86 1798.41 626.898 1798.19C626.99 1798.18 627.082 1798.17 627.174 1798.16C629.125 1797.95 631.2 1797.73 633.26 1797.41C637.559 1796.74 641.885 1795.63 644.981 1793.26C646.64 1791.98 647.471 1789.74 647.793 1786.95C648.117 1784.15 647.938 1780.69 647.471 1776.85C646.795 1771.31 645.506 1764.9 644.205 1758.43C643.705 1755.94 643.204 1753.45 642.735 1751C641.037 1742.11 639.768 1733.73 640.459 1727.85C640.804 1724.91 641.629 1722.68 643.048 1721.32C644.384 1720.03 646.329 1719.43 649.152 1719.84Z" fill="#EA9686" stroke="#0038FF"/>
<path d="M668.887 1872.81C669.164 1872.82 669.429 1872.83 669.68 1872.84C612.007 1888.01 575.078 1878.65 552.512 1865.41C541.012 1858.66 533.224 1850.9 528.313 1844.82C525.858 1841.79 524.122 1839.17 523.001 1837.32C522.696 1836.82 522.436 1836.37 522.219 1835.98C551.245 1853.5 588.556 1862.73 618.778 1867.59C634.166 1870.06 647.73 1871.4 657.447 1872.12C662.306 1872.48 666.203 1872.69 668.887 1872.81Z" fill="#EA9686" stroke="#0038FF"/>
<path d="M441.365 2357.81L441.408 2358.13L441.728 2358.22L441.86 2357.74C441.728 2358.22 441.729 2358.22 441.73 2358.22L441.736 2358.22L441.761 2358.23L441.86 2358.26L442.254 2358.37C442.602 2358.46 443.122 2358.61 443.806 2358.8C445.174 2359.17 447.199 2359.74 449.827 2360.48C455.083 2361.95 462.751 2364.12 472.399 2366.9C491.697 2372.47 518.914 2380.47 550.596 2390.25C613.868 2409.77 694.935 2436.34 766.269 2464.57V2533.94L765.747 2533.92C765.062 2533.9 764.045 2533.86 762.715 2533.82C760.056 2533.73 756.148 2533.59 751.155 2533.42C741.168 2533.06 726.84 2532.55 709.472 2531.89C674.737 2530.57 627.845 2528.69 579.218 2526.43C530.591 2524.17 480.23 2521.52 438.557 2518.67C396.865 2515.83 363.915 2512.78 350.074 2509.73C336.373 2506.71 323.31 2495.01 311.405 2479.01C299.513 2463.03 288.84 2442.85 279.893 2423.04C270.947 2403.22 263.734 2383.79 258.757 2369.31C256.269 2362.07 254.34 2356.07 253.033 2351.88C252.38 2349.78 251.882 2348.14 251.548 2347.02C251.404 2346.54 251.291 2346.16 251.208 2345.87L434.409 2324.47C434.447 2324.63 434.496 2324.84 434.554 2325.08C434.713 2325.75 434.942 2326.72 435.221 2327.91C435.779 2330.3 436.536 2333.58 437.336 2337.18C438.936 2344.39 440.698 2352.82 441.365 2357.81Z" fill="#F5B8A5" stroke="#0038FF"/>
<path d="M251.209 2345.88L430.221 2324.96L263.318 2382.15C259.433 2371.53 256.38 2362.37 254.29 2355.84C253.23 2352.53 252.418 2349.9 251.871 2348.09C251.598 2347.19 251.39 2346.5 251.252 2346.03C251.236 2345.97 251.222 2345.93 251.209 2345.88Z" fill="#EA9686" stroke="#0038FF"/>
<path d="M879.697 2477.75L879.806 2477.26L879.176 2477.12L879.198 2477.77L879.697 2477.75ZM879.697 2477.75C879.198 2477.77 879.198 2477.77 879.198 2477.77L879.198 2477.77L879.198 2477.78L879.198 2477.8L879.201 2477.89C879.203 2477.97 879.206 2478.08 879.21 2478.24C879.217 2478.54 879.225 2479 879.232 2479.58C879.244 2480.75 879.248 2482.44 879.212 2484.51C879.14 2488.65 878.911 2494.32 878.279 2500.46C877.647 2506.6 876.614 2513.2 874.94 2519.18C873.289 2525.07 871.027 2530.32 867.948 2533.97H767.167L753.487 2469.48C753.504 2469.45 753.523 2469.41 753.546 2469.37C753.638 2469.2 753.778 2468.95 753.962 2468.66C754.332 2468.06 754.882 2467.25 755.598 2466.42C757.04 2464.76 759.106 2463.06 761.699 2462.71C763.095 2462.51 770.775 2461.02 781.643 2458.91C792.448 2456.82 806.403 2454.11 820.464 2451.46C834.577 2448.8 848.806 2446.19 860.093 2444.31C865.737 2443.37 870.641 2442.61 874.425 2442.11C876.318 2441.87 877.925 2441.69 879.203 2441.59C880.492 2441.48 881.413 2441.46 881.95 2441.51C884.206 2441.74 887.947 2443.1 892.429 2445.12C896.889 2447.14 902.019 2449.79 907.022 2452.58C912.025 2455.36 916.895 2458.26 920.835 2460.78C924.79 2463.31 927.768 2465.43 929.019 2466.63C930.129 2467.7 930.386 2469.34 929.868 2471.3C929.351 2473.25 928.079 2475.44 926.294 2477.44C922.707 2481.47 917.219 2484.58 912.03 2483.76C906.617 2482.91 898.565 2481.28 891.857 2479.87C888.505 2479.17 885.493 2478.52 883.318 2478.04C882.23 2477.8 881.352 2477.61 880.746 2477.47C880.623 2477.45 880.51 2477.42 880.41 2477.4C880.264 2477.37 880.143 2477.34 880.049 2477.32L879.868 2477.28L879.822 2477.27L879.81 2477.27L879.807 2477.27L879.807 2477.26C879.807 2477.26 879.806 2477.26 879.697 2477.75Z" fill="#F5B8A5" stroke="#0038FF"/>
<path d="M346.337 1534.92V1735.58H315.172V1534.92C315.172 1470.26 378.566 1417.5 456.675 1417.5H507.744C462.77 1423.19 429.01 1438.32 405.047 1453.93C370.209 1469.34 346.344 1499.81 346.337 1534.92Z" fill="#007CEF" stroke="#0038FF"/>
<path d="M412.555 1837.91H308.521C297.217 1837.91 288.219 1830.31 288.219 1821.13V1696.15C288.219 1686.97 297.217 1679.37 308.521 1679.37H412.555C423.86 1679.37 432.858 1686.97 432.858 1696.15V1821.13C432.858 1830.31 423.86 1837.91 412.555 1837.91Z" fill="#0C426F" stroke="#0038FF"/>
<path d="M394.688 1837.91H290.654C279.35 1837.91 270.352 1830.31 270.352 1821.13V1696.15C270.352 1686.97 279.35 1679.37 290.654 1679.37H394.688C405.992 1679.37 414.99 1686.97 414.99 1696.15V1821.13C414.99 1830.31 405.992 1837.91 394.688 1837.91Z" fill="#0F2B47" stroke="#0038FF"/>
<path d="M367.347 1813.33H294.168C286.731 1813.33 280.867 1808.34 280.867 1802.37V1714.91C280.867 1708.94 286.731 1703.95 294.168 1703.95H367.347C374.784 1703.95 380.647 1708.94 380.647 1714.91V1802.37C380.64 1808.34 374.783 1813.33 367.347 1813.33Z" fill="#007CEF" stroke="#0038FF"/>
<path d="M538.12 1907.48H357.697C340.072 1907.48 325.891 1895.59 325.891 1881.16V1822.12H335.61V1881.16C335.61 1891.39 345.604 1899.58 357.69 1899.58H538.12V1907.48Z" fill="#0F2B47" stroke="#0038FF"/>
<path d="M549.872 1907.51H506.218C503.882 1907.51 502.125 1905.94 502.125 1904.2V1893.09C502.125 1891.35 503.875 1889.77 506.218 1889.77H549.872C552.208 1889.77 553.965 1891.35 553.965 1893.09L553.965 1904.2C553.965 1904.2 553.965 1904.2 553.965 1904.2C553.958 1905.94 552.206 1907.51 549.872 1907.51Z" fill="#0F2B47" stroke="#0038FF"/>
<path d="M313.688 1838.9H348.203V1859.52H313.688V1838.9Z" fill="#007CEF" stroke="#0038FF"/>
</g>
<path d="M2217.5 1377.23C1992.29 1285.66 1837.27 1093.49 1837.27 871.319C1837.27 560.471 2140.75 308.33 2515.31 308.33C2889.86 308.33 3193.34 560.477 3193.34 871.319C3193.34 1182.16 2889.86 1434.3 2515.31 1434.3C2408.46 1434.3 2307.4 1413.78 2217.5 1377.23Z" fill="#006CEB" stroke="#0038FF"/>
<mask id="mask1_473_2" style="mask-type:luminance" maskUnits="userSpaceOnUse" x="1022" y="0" width="2172" height="1435">
<path d="M2144 1342.46L2143.86 1342.38L2143.7 1342.4C1798.85 1386.78 1557.85 1389.82 1390.31 1366.35C1222.77 1342.88 1128.77 1292.9 1077.85 1231.31C1026.94 1169.74 1019.01 1096.46 1023.84 1026.17C1026.12 992.935 1031.26 960.386 1036.04 930.072C1036.32 928.337 1036.59 926.609 1036.86 924.889C1041.86 893.131 1046.27 863.949 1046.27 839.239C1046.27 800.482 1063.31 758.294 1093.95 714.114C1124.58 669.94 1168.78 623.816 1223.01 577.199C1331.46 483.966 1479.99 388.806 1640.24 303.36C1800.49 217.917 1972.44 142.197 2127.75 87.8404C2283.08 33.4782 2421.7 0.5 2515.3 0.5C2702.42 0.5 2871.92 140.355 2994.68 319.238C3117.43 498.108 3193.33 715.839 3193.33 871.311C3193.33 1182.15 2889.85 1434.29 2515.3 1434.29C2378.22 1434.29 2250.65 1400.52 2144 1342.46Z" fill="white" stroke="white"/>
</mask>
<g mask="url(#mask1_473_2)">
<path d="M2642.06 724.149C2642.03 724.048 2642.01 723.965 2641.99 723.901L2836.46 275.716C2836.49 275.716 2836.52 275.715 2836.54 275.715C2836.8 275.71 2837.19 275.706 2837.7 275.712C2838.71 275.723 2840.19 275.77 2842.07 275.915C2845.83 276.204 2851.18 276.883 2857.49 278.444C2870.12 281.565 2886.63 288.21 2902.15 302.303C2933.18 330.472 2960.42 388.536 2944.59 508.198C2928.76 627.958 2937.8 693.676 2955.82 726.208C2964.84 742.495 2976.13 750.502 2987.7 752.752C2999.25 754.998 3010.99 751.483 3020.87 744.916C3025.69 741.712 3029.95 740.982 3033.36 742.044C3036.76 743.107 3039.45 746.001 3041.04 750.322C3044.24 758.979 3042.99 773.175 3034.54 788.639C3017.65 819.52 2972.08 855.296 2876.75 861.262C2781.46 867.225 2722.77 832.814 2687.89 796.947C2670.45 779.007 2658.96 760.693 2651.82 746.866C2648.26 739.953 2645.78 734.163 2644.2 730.104C2643.41 728.074 2642.84 726.477 2642.47 725.389C2642.29 724.845 2642.15 724.429 2642.06 724.149Z" fill="#0C426F" stroke="#0038FF"/>
<path d="M2790.49 381.63C2790.53 381.107 2790.58 380.586 2790.62 380.066L2790 381.506C2789.95 382.022 2789.91 382.539 2789.87 383.058L2790.49 381.63ZM2641.62 723.45L2641.44 723.867L2641.9 724.066L2641.97 723.896C2641.96 723.871 2641.95 723.848 2641.95 723.828L2641.92 723.747L2641.92 723.725L2641.91 723.715C2641.91 723.71 2641.8 723.561 2641.62 723.45ZM2937.31 597.483C2937.31 597.424 2937.31 597.366 2937.32 597.307C2937.31 597.335 2937.3 597.362 2937.29 597.388C2937.27 597.414 2937.26 597.441 2937.26 597.469C2937.09 598.076 2936.93 598.676 2936.75 599.269C2936.73 599.909 2936.72 600.546 2936.7 601.181C2936.89 600.577 2937.07 599.966 2937.25 599.347C2937.27 598.728 2937.29 598.107 2937.31 597.483Z" fill="#0D3854" stroke="#0038FF"/>
<path d="M2453.1 275.715C2453.12 275.715 2453.13 275.715 2453.14 275.715L2647.62 723.901C2647.6 723.965 2647.58 724.048 2647.55 724.149C2647.46 724.429 2647.32 724.845 2647.14 725.389C2646.77 726.477 2646.2 728.074 2645.41 730.104C2643.83 734.163 2641.35 739.953 2637.79 746.866C2630.65 760.693 2619.16 779.007 2601.72 796.947C2566.84 832.814 2508.15 867.225 2412.86 861.262C2317.53 855.296 2271.96 819.52 2255.08 788.639C2246.62 773.175 2245.37 758.979 2248.57 750.322C2250.17 746.001 2252.85 743.107 2256.26 742.044C2259.66 740.982 2263.92 741.712 2268.74 744.916C2278.64 751.491 2291.18 754.994 2303.95 752.753C2316.72 750.511 2329.65 742.527 2340.32 726.239C2361.64 693.701 2373.96 627.969 2358.12 508.198C2342.3 388.521 2366.27 330.449 2394.03 302.284C2407.92 288.197 2422.79 281.559 2434.18 278.441C2439.88 276.882 2444.7 276.203 2448.1 275.914C2449.8 275.77 2451.14 275.723 2452.06 275.712C2452.52 275.706 2452.87 275.71 2453.1 275.715Z" fill="#0D3854" stroke="#0038FF"/>
<path d="M2255.02 624.853C2255.07 624.752 2255.14 624.628 2255.22 624.479C2255.44 624.038 2255.78 623.388 2256.22 622.555C2257.09 620.891 2258.35 618.497 2259.92 615.58C2263.05 609.747 2267.39 601.825 2272.22 593.466C2277.06 585.107 2282.39 576.317 2287.51 568.747C2292.63 561.165 2297.51 554.847 2301.44 551.399C2303.29 549.777 2306.22 549.082 2310.03 549.223C2313.83 549.362 2318.42 550.329 2323.51 551.929C2333.68 555.128 2345.74 560.83 2357.21 567.351C2368.68 573.872 2379.54 581.198 2387.32 587.634C2391.21 590.854 2394.31 593.838 2396.33 596.376C2397.34 597.645 2398.07 598.786 2398.49 599.774C2398.91 600.769 2399.01 601.554 2398.84 602.149C2398.65 602.811 2398.15 603.732 2397.32 604.897C2396.5 606.052 2395.38 607.41 2394 608.942C2391.26 612.004 2387.51 615.734 2383.09 619.882C2374.27 628.176 2362.81 638.116 2351.45 647.686C2340.09 657.256 2328.84 666.451 2320.42 673.254C2316.22 676.655 2312.72 679.458 2310.27 681.411C2309.05 682.387 2308.09 683.151 2307.44 683.671C2307.18 683.876 2306.97 684.043 2306.81 684.17L2255.02 624.853Z" fill="#FFC1A9" stroke="#0038FF"/>
<path d="M2373.04 443.276L2478.15 494.477L2381.03 631.975L2275.92 580.774L2373.04 443.276Z" fill="#007CEF" stroke="#0038FF"/>
<path d="M2277.26 540.537L2277.26 540.537C2281.39 531.626 2293.11 509.336 2306.48 490.14C2313.17 480.539 2320.25 471.738 2326.99 465.77C2330.35 462.786 2333.62 460.529 2336.68 459.228C2339.74 457.929 2342.57 457.598 2345.11 458.409L2345.11 458.411L2345.13 458.417C2345.15 458.423 2345.18 458.432 2345.21 458.444C2345.29 458.469 2345.4 458.506 2345.54 458.555C2345.82 458.655 2346.23 458.805 2346.76 459.007C2347.8 459.411 2349.28 460.023 2351.01 460.85C2354.46 462.505 2358.91 465.016 2362.87 468.445C2366.84 471.875 2370.31 476.202 2371.87 481.484C2373.43 486.753 2373.1 493.03 2369.38 500.408C2361.86 515.3 2348.04 532.742 2334.81 546.386C2328.19 553.206 2321.74 559.064 2316.31 563.171C2313.59 565.226 2311.14 566.834 2309.07 567.907C2306.97 568.989 2305.32 569.487 2304.19 569.415C2299.18 569.092 2290.36 566.196 2283.85 561.172C2280.6 558.665 2277.95 555.654 2276.62 552.208C2275.29 548.78 2275.25 544.881 2277.26 540.537Z" fill="#FFC1A9" stroke="#0038FF"/>
<path d="M1788.07 1204.12L1788.57 1204.13L1788.59 1203.49L1787.96 1203.63L1788.07 1204.12ZM1788.07 1204.12C1787.96 1203.63 1787.96 1203.63 1787.96 1203.63L1787.96 1203.63L1787.95 1203.63L1787.94 1203.63L1787.9 1203.64L1787.72 1203.68C1787.56 1203.72 1787.32 1203.77 1787.02 1203.84C1786.41 1203.97 1785.53 1204.17 1784.45 1204.4C1782.27 1204.88 1779.26 1205.53 1775.91 1206.24C1769.2 1207.65 1761.15 1209.27 1755.74 1210.13C1750.55 1210.95 1745.06 1207.83 1741.47 1203.81C1739.69 1201.8 1738.41 1199.62 1737.9 1197.66C1737.38 1195.7 1737.64 1194.07 1738.75 1193C1740 1191.79 1742.97 1189.68 1746.93 1187.15C1750.87 1184.63 1755.74 1181.72 1760.74 1178.94C1765.75 1176.16 1770.88 1173.51 1775.34 1171.49C1779.82 1169.46 1783.56 1168.11 1785.81 1167.88C1786.35 1167.82 1787.27 1167.85 1788.56 1167.95C1789.84 1168.05 1791.45 1168.23 1793.34 1168.48C1797.12 1168.97 1802.03 1169.73 1807.67 1170.67C1818.96 1172.55 1833.19 1175.16 1847.3 1177.82C1861.39 1180.48 1875.37 1183.19 1886.18 1185.29C1897.02 1187.39 1904.67 1188.88 1906.07 1189.07L1906.13 1188.61L1906.07 1189.07C1908.66 1189.43 1910.72 1191.12 1912.17 1192.79C1912.88 1193.62 1913.43 1194.42 1913.8 1195.02C1913.99 1195.32 1914.13 1195.57 1914.22 1195.74C1914.24 1195.78 1914.26 1195.81 1914.28 1195.85L1900.6 1260.33H1799.82C1796.74 1256.69 1794.48 1251.44 1792.82 1245.54C1791.15 1239.56 1790.12 1232.97 1789.49 1226.83C1788.85 1220.69 1788.62 1215.01 1788.55 1210.87C1788.52 1208.8 1788.52 1207.12 1788.53 1205.95C1788.54 1205.36 1788.55 1204.91 1788.55 1204.6C1788.56 1204.45 1788.56 1204.33 1788.56 1204.25L1788.57 1204.16L1788.57 1204.14L1788.57 1204.14L1788.57 1204.13C1788.57 1204.13 1788.57 1204.13 1788.07 1204.12Z" fill="#EA9686" stroke="#0038FF"/>
<path d="M2472.36 772.522L2472.36 772.522L2472.37 772.526L2472.52 772.048C2472.37 772.526 2472.37 772.526 2472.37 772.526L2472.38 772.527L2472.39 772.531L2472.44 772.546C2472.48 772.56 2472.55 772.581 2472.63 772.609C2472.81 772.666 2473.07 772.753 2473.41 772.871C2474.09 773.108 2475.07 773.472 2476.32 773.977C2478.8 774.986 2482.3 776.56 2486.34 778.814C2494.42 783.323 2504.66 790.548 2513.3 801.41C2521.94 812.268 2528.99 826.769 2530.71 845.852C2532.42 864.94 2528.8 888.642 2516.04 917.901C2491.82 973.398 2470.52 1027.54 2455.26 1067.81C2447.63 1087.94 2441.52 1104.6 2437.31 1116.24C2435.21 1122.05 2433.58 1126.61 2432.48 1129.71C2431.93 1131.27 2431.51 1132.45 2431.23 1133.25C2431.12 1133.55 2431.04 1133.78 2430.97 1133.97L2224.93 1050.02C2224.98 1049.9 2225.04 1049.76 2225.11 1049.59C2225.37 1048.99 2225.75 1048.11 2226.26 1046.95C2227.27 1044.65 2228.76 1041.27 2230.71 1036.98C2234.59 1028.41 2240.27 1016.21 2247.45 1001.69C2261.8 972.636 2282.11 934.304 2306 897.165C2329.88 860.019 2357.31 824.097 2385.88 799.843C2414.47 775.578 2444.07 763.089 2472.36 772.522Z" fill="#DB3752" stroke="#0038FF"/>
<path d="M2270.95 955.442L2270.46 955.339L2270.3 956.085L2271.05 955.932L2270.95 955.442ZM2270.95 955.442C2271.05 955.932 2271.05 955.931 2271.05 955.931L2271.06 955.929L2271.1 955.92L2271.27 955.887C2271.41 955.857 2271.63 955.813 2271.92 955.756C2272.49 955.641 2273.34 955.472 2274.45 955.256C2276.66 954.825 2279.88 954.208 2283.95 953.464C2292.08 951.975 2303.58 949.978 2317.02 947.944C2343.91 943.876 2378.57 939.664 2409.72 939.078C2425.3 938.785 2439.98 939.4 2452.37 941.387C2464.76 943.376 2474.79 946.732 2481.12 951.873C2484.28 954.436 2486.5 957.435 2487.66 960.926C2488.81 964.417 2488.9 968.437 2487.73 973.062C2485.37 982.333 2477.94 993.979 2463.93 1008.48C2373.42 1102.12 2276.07 1167.41 2201.26 1187.94C2163.84 1198.2 2132.16 1197.25 2109.77 1183.18C2087.41 1169.13 2074.18 1141.89 2073.87 1099.22C2073.21 1009.38 2113.38 885.223 2153.75 783.471C2173.92 732.607 2194.14 687.363 2209.32 654.835C2216.91 638.571 2223.23 625.487 2227.66 616.469C2229.88 611.96 2231.62 608.467 2232.8 606.102C2233.4 604.92 2233.85 604.019 2234.16 603.414C2234.26 603.212 2234.35 603.043 2234.41 602.907L2381.72 661.653C2339.37 745.188 2311.57 818.541 2294.35 871.044C2285.72 897.347 2279.75 918.417 2275.93 932.913C2274.03 940.161 2272.66 945.766 2271.77 949.559C2271.32 951.456 2270.99 952.9 2270.78 953.871C2270.67 954.356 2270.59 954.722 2270.54 954.968C2270.51 955.091 2270.49 955.184 2270.48 955.245L2270.46 955.315L2270.46 955.333L2270.46 955.338C2270.46 955.339 2270.46 955.339 2270.95 955.442Z" fill="#DB3752" stroke="#0038FF"/>
<path d="M2380.07 1008.65C2380.29 1008.27 2380.46 1007.97 2380.59 1007.75L2380.59 1007.75C2380.87 1007.89 2381.28 1008.09 2381.82 1008.35C2382.88 1008.87 2384.42 1009.62 2386.33 1010.55C2390.14 1012.42 2395.43 1015.03 2401.32 1017.96C2412.85 1023.71 2426.66 1030.73 2436.19 1035.99C2365.07 1104.1 2291.68 1154.09 2229.66 1178.33C2273.08 1148.84 2310.42 1106.86 2337.13 1071.89C2350.86 1053.91 2361.78 1037.77 2369.27 1026.14C2373.01 1020.32 2375.9 1015.62 2377.85 1012.38C2378.83 1010.76 2379.57 1009.5 2380.07 1008.65Z" fill="#CE2949" stroke="#0038FF"/>
<path d="M2697.96 764.604L2881.48 774.601C2881.47 774.768 2881.45 774.976 2881.44 775.223C2881.4 775.968 2881.33 777.076 2881.25 778.533C2881.09 781.446 2880.86 785.755 2880.57 791.335C2880.01 802.495 2879.26 818.741 2878.49 839.086C2876.95 879.776 2875.36 936.862 2875.14 1002.45C2874.7 1133.44 2879.72 1298.35 2901.58 1434.3H2307.69C2336.44 1182.94 2375.05 1017 2406.49 913.891C2422.22 862.299 2436.15 826.44 2446.14 803.483C2451.14 792.005 2455.15 783.752 2457.91 778.372C2459.3 775.681 2460.37 773.709 2461.09 772.411C2461.45 771.762 2461.72 771.281 2461.91 770.963C2461.96 770.871 2462.01 770.792 2462.04 770.727L2697.96 764.604Z" fill="#EA445A" stroke="#0038FF"/>
<path d="M2697.95 764.598L2728.71 766.275C2723.07 800.167 2695.73 840.103 2663.1 864.731C2646.7 877.107 2629.01 885.582 2612.11 887.504C2595.24 889.422 2579.14 884.808 2565.86 870.968C2539.78 843.8 2528.61 818.225 2523.96 799.462C2521.63 790.079 2520.93 782.395 2520.81 777.064C2520.75 774.398 2520.83 772.32 2520.93 770.911C2520.98 770.207 2521.04 769.67 2521.08 769.311C2521.08 769.268 2521.09 769.227 2521.09 769.189L2697.95 764.598Z" fill="#EA9686" stroke="#0038FF"/>
<path d="M2875.2 987.23C2874.8 1047.12 2875.5 1114.94 2878.45 1184.3L2837.28 995.205L2875.2 987.23Z" fill="#CE2949" stroke="#0038FF"/>
<path d="M2556.75 778.881L2556.75 778.881L2553.71 673.519L2677.7 670.068L2684.88 774.588C2686.07 791.925 2677.24 807.418 2662.92 817.736C2648.61 828.054 2628.83 833.173 2608.22 829.737C2578.77 824.827 2557.46 803.659 2556.75 778.881Z" fill="#EA9686" stroke="#0038FF"/>
<path d="M2555.86 735.162C2555.7 735.088 2555.57 735.027 2555.47 734.978L2554.92 715.918C2554.96 714.709 2555.01 713.639 2555.1 712.78C2555.19 711.899 2555.31 711.295 2555.44 710.983C2555.56 710.702 2555.85 710.346 2556.36 709.912C2556.87 709.485 2557.55 709.014 2558.41 708.492C2560.13 707.449 2562.49 706.237 2565.4 704.796C2566.4 704.299 2567.47 703.776 2568.59 703.224C2573.98 700.581 2580.69 697.285 2588.18 693.104C2597.11 688.121 2606.43 687.346 2614.6 687.828C2618.69 688.069 2622.47 688.624 2625.78 689.121C2625.93 689.144 2626.08 689.167 2626.23 689.189C2629.33 689.656 2632.02 690.061 2634.07 690.061C2634.44 690.061 2635.14 690.192 2636.16 690.477C2637.17 690.758 2638.44 691.174 2639.94 691.714C2642.93 692.792 2646.79 694.355 2651.18 696.29C2659.88 700.132 2670.6 705.431 2680.53 711.295L2683.43 753.528C2648.66 758.316 2616.66 753.677 2593.32 747.822C2581.6 744.882 2572.06 741.637 2565.46 739.127C2562.15 737.872 2559.59 736.801 2557.84 736.045C2556.97 735.666 2556.31 735.367 2555.86 735.162Z" fill="#E28174" stroke="#0038FF"/>
<path d="M2790.33 361.922L2809.84 473.415C2809.6 473.385 2809.32 473.355 2809.1 473.341C2808.98 473.333 2808.84 473.326 2808.73 473.339C2808.7 473.342 2808.65 473.349 2808.59 473.367C2808.57 473.376 2808.4 473.426 2808.3 473.597C2808.24 473.702 2808.22 473.828 2808.24 473.95C2808.26 474.059 2808.31 474.136 2808.34 474.178C2808.41 474.257 2808.48 474.301 2808.5 474.317C2808.62 474.383 2808.79 474.44 2808.97 474.493C2809.18 474.554 2809.46 474.63 2809.84 474.723C2812.89 475.47 2822.5 477.464 2848.72 482.454C2855.17 483.683 2859.73 486.495 2862.81 490.45C2865.89 494.413 2867.52 499.568 2868.02 505.535C2869.01 517.484 2865.46 532.543 2860.25 547.357C2855.04 562.156 2848.2 576.651 2842.65 587.45C2839.88 592.849 2837.43 597.321 2835.68 600.444C2834.8 602.005 2834.1 603.228 2833.62 604.061C2833.37 604.478 2833.19 604.796 2833.06 605.011C2833.02 605.077 2832.99 605.134 2832.96 605.18L2832.92 605.253L2832.88 605.312C2733.36 738.081 2582.27 774.783 2476.49 701.736C2450.11 683.52 2434.16 653.2 2425.09 617.883C2416.02 582.57 2413.85 542.32 2414.99 504.331C2416.14 466.346 2420.59 430.645 2424.76 404.438C2426.85 391.335 2428.86 380.608 2430.36 373.156C2431.1 369.431 2431.72 366.524 2432.15 364.55C2432.36 363.563 2432.53 362.808 2432.64 362.301C2432.68 362.154 2432.7 362.027 2432.73 361.922H2790.33Z" fill="#F5B8A5" stroke="#0038FF"/>
<path d="M2832.89 605.304C2820.09 622.372 2806.42 637.818 2792.13 651.684C2749.31 604.643 2725.5 546.908 2712.4 500.864C2705.83 477.784 2701.96 457.65 2699.72 443.287C2698.61 436.106 2697.9 430.369 2697.47 426.428C2697.26 424.457 2697.12 422.936 2697.02 421.908C2696.98 421.394 2696.95 421.004 2696.93 420.742C2696.92 420.611 2696.91 420.512 2696.91 420.447L2696.9 420.373L2696.9 420.354L2696.9 420.35C2696.9 420.35 2696.9 420.349 2696.85 420.352L2696.9 420.349L2696.86 419.773L2696.29 419.894C2512.54 459.274 2432.93 405.576 2425.77 400.376C2426.02 400.203 2426.35 399.974 2426.74 399.697C2427.73 399.007 2429.16 398.011 2430.91 396.785C2434.41 394.333 2439.2 390.963 2444.39 387.286C2454.75 379.934 2466.69 371.345 2472.93 366.416C2475.53 364.37 2479.04 362.955 2483.11 361.914H2790.33L2809.85 473.407C2809.6 473.377 2809.32 473.347 2809.11 473.333C2808.99 473.325 2808.84 473.318 2808.73 473.331C2808.7 473.334 2808.65 473.341 2808.6 473.359C2808.57 473.368 2808.41 473.418 2808.31 473.589C2808.24 473.695 2808.22 473.82 2808.24 473.942C2808.26 474.051 2808.31 474.128 2808.35 474.171C2808.41 474.249 2808.48 474.293 2808.51 474.309C2808.62 474.375 2808.79 474.432 2808.98 474.486C2809.18 474.546 2809.47 474.622 2809.85 474.715C2812.9 475.462 2822.5 477.456 2848.72 482.446C2855.18 483.675 2859.74 486.488 2862.81 490.442C2865.9 494.405 2867.52 499.56 2868.02 505.527C2869.02 517.476 2865.47 532.535 2860.26 547.349C2855.05 562.148 2848.2 576.643 2842.66 587.442C2839.88 592.841 2837.44 597.313 2835.68 600.436C2834.81 601.997 2834.1 603.22 2833.62 604.053C2833.38 604.47 2833.19 604.788 2833.06 605.003C2833 605.11 2832.95 605.191 2832.92 605.245L2832.89 605.304Z" fill="#EA9686" stroke="#0038FF"/>
<path d="M2738.87 381.459L2739.35 381.575L2739.56 380.719L2738.72 380.982L2738.87 381.459ZM2738.87 381.459C2738.72 380.982 2738.72 380.982 2738.72 380.982L2738.71 380.984L2738.68 380.992L2738.58 381.023C2738.49 381.051 2738.36 381.093 2738.18 381.148C2737.82 381.257 2737.29 381.42 2736.59 381.63C2735.19 382.05 2733.12 382.662 2730.45 383.428C2725.1 384.961 2717.33 387.111 2707.64 389.58C2688.27 394.518 2661.25 400.731 2630.64 405.833C2569.4 416.04 2493.88 421.781 2436.56 404.021C2407.34 394.964 2390.42 379.907 2384.22 361.988C2378.01 344.065 2382.47 323.129 2396.35 302.204C2424.1 260.348 2489.35 218.779 2580.85 202.174C2682.89 184.453 2746.61 202.828 2784.79 225.576C2803.89 236.952 2816.62 249.43 2824.57 259.057C2828.54 263.871 2831.32 267.971 2833.1 270.865C2834 272.312 2834.64 273.457 2835.06 274.238C2835.27 274.629 2835.42 274.929 2835.52 275.13C2835.57 275.231 2835.61 275.306 2835.64 275.357L2835.66 275.413L2835.67 275.426L2835.67 275.429C2835.67 275.43 2835.67 275.43 2836.12 275.217L2835.67 275.43L2835.8 275.698L2836.09 275.716C2867.45 277.719 2886.38 292.608 2897.19 313.81C2908.01 335.054 2910.7 362.672 2909.44 390.11C2908.19 417.536 2903 444.721 2898.11 465.055C2895.67 475.22 2893.31 483.67 2891.56 489.578C2890.68 492.532 2889.96 494.85 2889.46 496.429C2889.38 496.667 2889.31 496.888 2889.25 497.092C2889.09 497.565 2888.97 497.946 2888.87 498.23C2888.85 498.318 2888.82 498.397 2888.8 498.467L2826.28 491.975C2799.06 487.118 2780.05 477.779 2766.83 466.529C2753.6 455.277 2746.14 442.092 2742.07 429.508C2738 416.92 2737.32 404.931 2737.66 396.085C2737.83 391.663 2738.26 388.03 2738.64 385.505C2738.83 384.242 2739.01 383.257 2739.14 382.588C2739.19 382.336 2739.23 382.129 2739.27 381.969C2739.28 381.917 2739.29 381.87 2739.3 381.829C2739.32 381.743 2739.33 381.679 2739.34 381.637L2739.35 381.589L2739.35 381.578L2739.35 381.575C2739.35 381.575 2739.35 381.575 2738.87 381.459Z" fill="#0C426F" stroke="#0038FF"/>
<path d="M2817.94 779.411L2817.94 779.408L2817.95 779.405L2817.75 778.947C2817.95 779.405 2817.95 779.405 2817.95 779.405L2817.95 779.404L2817.96 779.399L2818.01 779.379C2818.05 779.361 2818.11 779.334 2818.2 779.3C2818.37 779.23 2818.62 779.127 2818.95 778.998C2819.62 778.739 2820.6 778.373 2821.89 777.945C2824.46 777.089 2828.21 775.986 2832.93 775.005C2842.38 773.043 2855.71 771.568 2871.24 773.52C2902.27 777.419 2942.15 795.012 2977.37 849.939C3010.74 902.003 3037.05 955.531 3055.02 996.046C3064 1016.3 3070.9 1033.3 3075.55 1045.24C3077.87 1051.21 3079.63 1055.91 3080.82 1059.12C3081.41 1060.72 3081.85 1061.96 3082.15 1062.79C3082.26 1063.1 3082.35 1063.35 3082.42 1063.55L2908.64 1115.09C2908.55 1114.96 2908.43 1114.78 2908.28 1114.55C2907.9 1114 2907.34 1113.18 2906.62 1112.11C2905.17 1109.96 2903.07 1106.8 2900.43 1102.77C2895.14 1094.71 2887.72 1083.14 2879.15 1069.11C2862.02 1041.06 2840.33 1003.2 2822.1 963.934C2803.86 924.663 2789.1 884.037 2785.79 850.451C2784.13 833.66 2785.34 818.669 2790.38 806.496C2795.4 794.341 2804.25 784.971 2817.94 779.411Z" fill="#DB3752" stroke="#0038FF"/>
<path d="M2438.31 478.897L2438.31 478.897C2457.63 467.045 2475.26 467.277 2486.83 469.637C2495.07 471.32 2500.23 474.088 2500.7 474.352L2500.7 474.356C2502.87 475.553 2504.23 477.351 2504.69 479.267C2505.16 481.179 2504.75 483.246 2503.33 485.023C2500.46 488.603 2494.56 489.624 2490.21 487.203L2490.2 487.196L2490.19 487.189C2490.19 487.189 2490.18 487.185 2490.13 487.159C2490.09 487.138 2490.03 487.108 2489.95 487.071C2489.8 486.997 2489.58 486.895 2489.3 486.772C2488.75 486.525 2487.94 486.195 2486.91 485.846C2484.84 485.149 2481.88 484.373 2478.22 484.033C2470.89 483.352 2460.8 484.415 2449.58 491.301C2445.36 493.886 2439.43 493.126 2436.34 489.662C2434.81 487.939 2434.28 485.888 2434.63 483.961C2434.98 482.03 2436.22 480.182 2438.31 478.897Z" fill="#0C426F" stroke="#0038FF"/>
<path d="M2686.6 478.897L2686.6 478.897C2688.7 480.182 2689.94 482.03 2690.29 483.961C2690.64 485.888 2690.11 487.939 2688.58 489.662C2685.48 493.126 2679.55 493.887 2675.34 491.301C2664.12 484.415 2654.02 483.352 2646.7 484.033C2643.04 484.373 2640.07 485.149 2638.01 485.846C2636.98 486.195 2636.17 486.525 2635.61 486.772C2635.33 486.895 2635.11 486.997 2634.96 487.071C2634.89 487.108 2634.83 487.138 2634.79 487.159C2634.74 487.185 2634.73 487.189 2634.73 487.189L2634.71 487.196L2634.7 487.203C2630.35 489.624 2624.46 488.603 2621.59 485.023C2620.17 483.246 2619.76 481.179 2620.22 479.267C2620.69 477.351 2622.04 475.553 2624.21 474.356L2624.21 474.356L2624.22 474.352C2624.68 474.088 2629.85 471.32 2638.09 469.637C2649.65 467.277 2667.28 467.045 2686.6 478.897Z" fill="#0C426F" stroke="#0038FF"/>
<path d="M2548.86 573.051C2551.96 575.429 2556.28 576.533 2560.58 577.201C2562.64 577.521 2564.72 577.743 2566.67 577.952L2566.94 577.982C2568.98 578.2 2570.87 578.408 2572.48 578.702C2574.11 578.999 2575.4 579.374 2576.26 579.899C2577.1 580.407 2577.5 581.019 2577.47 581.839C2577.45 582.724 2576.94 583.949 2575.66 585.639C2574.4 587.315 2572.43 589.385 2569.59 591.95C2558.36 602.096 2541.27 603.153 2529.78 597.472C2524.05 594.638 2519.75 590.151 2518.24 584.328C2516.73 578.507 2517.97 571.248 2523.53 562.816C2532.21 549.65 2537.5 533.753 2540.63 521.167C2542.2 514.871 2543.22 509.395 2543.86 505.492C2544.17 503.541 2544.39 501.982 2544.53 500.911C2544.6 500.375 2544.65 499.961 2544.68 499.68C2544.69 499.664 2544.69 499.649 2544.69 499.633C2547.51 499.227 2549.46 499.828 2550.79 501.114C2552.21 502.479 2553.04 504.704 2553.38 507.644C2554.07 513.524 2552.8 521.904 2551.1 530.792C2550.64 533.244 2550.13 535.734 2549.64 538.215C2548.33 544.686 2547.04 551.1 2546.37 556.645C2545.9 560.484 2545.72 563.943 2546.05 566.746C2546.37 569.533 2547.2 571.778 2548.86 573.051ZM2548.86 573.051C2548.86 573.051 2548.86 573.051 2548.86 573.051L2549.16 572.654L2548.86 573.05C2548.86 573.051 2548.86 573.051 2548.86 573.051Z" fill="#EA9686" stroke="#0038FF"/>
<path d="M2567.29 636.746C2595.23 628.322 2632.94 618.933 2672.24 614.975C2672.19 615.165 2672.12 615.391 2672.05 615.653C2671.8 616.541 2671.41 617.836 2670.87 619.454C2669.79 622.69 2668.12 627.218 2665.74 632.38C2660.97 642.711 2653.36 655.554 2642 665.676C2630.65 675.789 2615.54 683.187 2595.74 682.648C2576.09 682.114 2551.75 673.759 2521.81 652.372C2522.36 652.151 2523.18 651.826 2524.25 651.41C2526.4 650.576 2529.55 649.375 2533.59 647.908C2541.65 644.976 2553.23 640.983 2567.29 636.746Z" fill="#F6F7F1" stroke="#0038FF"/>
<path d="M2948.3 1227.09L2948.29 1227.06L2948.27 1227.02C2945.87 1222.42 2927.33 1180.88 2909.39 1140.46C2900.42 1120.25 2891.6 1100.34 2885.02 1085.47C2881.74 1078.04 2879.01 1071.87 2877.1 1067.56C2876.15 1065.41 2875.4 1063.71 2874.89 1062.56L2874.42 1061.49L3080.77 1058.78C3080.8 1058.9 3080.84 1059.05 3080.88 1059.22C3081.01 1059.77 3081.21 1060.57 3081.47 1061.63C3081.98 1063.74 3082.72 1066.84 3083.65 1070.8C3085.51 1078.72 3088.13 1090.06 3091.14 1103.79C3097.16 1131.23 3104.77 1168.17 3111.09 1206.16C3117.42 1244.15 3122.47 1283.18 3123.39 1314.79C3123.84 1330.6 3123.27 1344.53 3121.31 1355.55C3119.35 1366.59 3116.01 1374.59 3111.05 1378.66L3110.84 1378.84L3110.87 1379.11C3119.51 1452.09 3113.02 1501.5 3098.48 1534.58C3083.96 1567.64 3061.38 1584.42 3037.74 1592.13C3014.08 1599.85 2989.32 1598.48 2970.46 1595.17C2961.03 1593.52 2953.08 1591.38 2947.49 1589.66C2944.7 1588.8 2942.5 1588.04 2940.99 1587.5C2940.24 1587.23 2939.66 1587.01 2939.27 1586.86C2939.2 1586.84 2939.13 1586.81 2939.07 1586.79L2950.73 1527.81C2973.49 1449.34 2972.89 1374.17 2966.59 1318.62C2963.44 1290.84 2958.87 1267.96 2955.09 1252.03C2953.2 1244.06 2951.5 1237.83 2950.28 1233.59C2949.67 1231.47 2949.17 1229.85 2948.83 1228.75C2948.66 1228.21 2948.53 1227.79 2948.44 1227.52C2948.4 1227.38 2948.36 1227.27 2948.34 1227.2L2948.31 1227.12L2948.31 1227.1L2948.3 1227.1C2948.3 1227.09 2948.3 1227.09 2947.83 1227.25L2948.3 1227.09Z" fill="#DB3752" stroke="#0038FF"/>
<path d="M2793.09 509.975L2793.52 510.24L2793.53 510.221L2793.54 510.201L2793.09 509.975ZM2793.09 509.975C2793.54 510.201 2793.54 510.201 2793.54 510.2L2793.54 510.199L2793.55 510.191L2793.56 510.16C2793.58 510.132 2793.6 510.089 2793.63 510.033C2793.69 509.92 2793.78 509.752 2793.89 509.533C2794.13 509.094 2794.49 508.448 2794.97 507.629C2795.94 505.989 2797.39 503.65 2799.34 500.863C2803.23 495.288 2809.11 487.922 2817.04 480.76C2832.91 466.439 2856.96 452.947 2889.79 456.187C2906.14 457.8 2917.9 466.253 2924.68 478.278C2931.47 490.318 2933.28 505.972 2929.62 521.978C2922.32 553.97 2893.18 587.319 2838.54 595.658C2811.16 599.834 2794.79 596.516 2785.55 589.349C2776.33 582.206 2774.08 571.123 2775.23 559.386C2776.39 547.65 2780.95 535.368 2785.24 526.001C2787.38 521.322 2789.46 517.379 2790.99 514.606C2791.76 513.22 2792.39 512.127 2792.83 511.381C2793.05 511.008 2793.22 510.722 2793.34 510.53C2793.4 510.433 2793.44 510.36 2793.47 510.312L2793.51 510.257L2793.52 510.244L2793.52 510.241C2793.52 510.24 2793.52 510.24 2793.09 509.975Z" fill="#F5B8A5" stroke="#0038FF"/>
<path d="M2850.61 500.413C2849.07 500.592 2847.78 500.793 2846.88 500.949C2847.35 500.442 2848 499.784 2848.82 499.042C2850.73 497.32 2853.54 495.15 2857.17 493.361C2864.4 489.789 2874.91 487.717 2887.99 493.795C2894.43 496.786 2897.36 501.922 2897.73 508.09C2898.11 514.295 2895.89 521.56 2891.93 528.696C2887.97 535.825 2882.31 542.78 2875.88 548.355C2869.88 553.551 2863.23 557.528 2856.69 559.346C2856.69 559.342 2856.69 559.338 2856.69 559.335C2857.3 558.569 2858.17 557.455 2859.21 556.058C2861.29 553.263 2864.07 549.332 2866.87 544.787C2872.45 535.723 2878.16 524.122 2878.41 514.207C2878.53 509.15 2876.49 505.766 2873.34 503.583C2870.23 501.422 2866.06 500.461 2861.95 500.12C2857.83 499.778 2853.7 500.053 2850.61 500.413Z" fill="#EA9686" stroke="#0038FF"/>
<path d="M2677.11 525.819C2677.11 538.775 2664.43 549.427 2648.58 549.427C2632.73 549.427 2620.05 538.775 2620.05 525.819C2620.05 512.864 2632.73 502.211 2648.58 502.211C2664.43 502.211 2677.11 512.864 2677.11 525.819Z" fill="#0C426F" stroke="#0038FF"/>
<path d="M2656.77 503.274L2656.83 503.28C2656.98 503.296 2657.19 503.319 2657.47 503.348C2658.01 503.405 2658.81 503.484 2659.78 503.572C2661.72 503.748 2664.38 503.958 2667.25 504.099C2670.12 504.24 2673.21 504.31 2676.01 504.204C2678.8 504.099 2681.35 503.817 2683.11 503.233C2685.85 502.326 2687.82 502.535 2688.83 503.198C2689.31 503.52 2689.57 503.945 2689.63 504.43C2689.69 504.928 2689.53 505.558 2689.04 506.279C2688.06 507.729 2685.82 509.42 2681.88 510.842C2677.96 512.259 2672.41 513.391 2664.9 513.764C2661.02 513.955 2658 513.919 2655.68 513.713C2653.35 513.506 2651.76 513.13 2650.72 512.66C2649.68 512.191 2649.25 511.661 2649.13 511.173C2648.99 510.671 2649.14 510.059 2649.56 509.344C2650.41 507.906 2652.22 506.375 2653.87 505.178C2654.69 504.586 2655.45 504.089 2656.01 503.74C2656.29 503.565 2656.52 503.428 2656.67 503.334C2656.71 503.312 2656.74 503.291 2656.77 503.274Z" fill="#0C426F" stroke="#0038FF"/>
<path d="M2656.04 516.915L2656.1 516.921C2656.24 516.937 2656.46 516.96 2656.73 516.989C2657.28 517.046 2658.07 517.125 2659.04 517.213C2660.98 517.388 2663.64 517.599 2666.51 517.74C2669.38 517.88 2672.47 517.951 2675.27 517.845C2678.06 517.74 2680.61 517.458 2682.37 516.874C2685.11 515.967 2687.09 516.175 2688.09 516.839C2688.58 517.161 2688.84 517.585 2688.89 518.071C2688.95 518.569 2688.8 519.198 2688.31 519.919C2687.33 521.37 2685.08 523.06 2681.15 524.483C2677.23 525.9 2671.68 527.032 2664.16 527.404C2660.29 527.596 2657.27 527.56 2654.95 527.354C2652.62 527.146 2651.03 526.77 2649.98 526.3C2648.94 525.831 2648.52 525.302 2648.39 524.814C2648.26 524.311 2648.4 523.7 2648.83 522.985C2649.68 521.547 2651.49 520.016 2653.14 518.818C2653.96 518.227 2654.72 517.73 2655.28 517.38C2655.55 517.206 2655.78 517.068 2655.94 516.975C2655.98 516.952 2656.01 516.932 2656.04 516.915Z" fill="#0C426F" stroke="#0038FF"/>
<path d="M2504.87 525.819C2504.87 538.775 2492.18 549.427 2476.34 549.427C2460.49 549.427 2447.8 538.775 2447.8 525.819C2447.8 512.864 2460.49 502.211 2476.34 502.211C2492.18 502.211 2504.87 512.864 2504.87 525.819Z" fill="#0C426F" stroke="#0038FF"/>
<path d="M2468.14 503.274L2468.08 503.28C2467.94 503.296 2467.72 503.319 2467.45 503.348C2466.9 503.405 2466.11 503.484 2465.14 503.572C2463.2 503.748 2460.54 503.958 2457.67 504.099C2454.8 504.24 2451.71 504.31 2448.9 504.204C2446.12 504.099 2443.57 503.817 2441.81 503.233L2468.14 503.274ZM2468.14 503.274C2468.17 503.291 2468.2 503.312 2468.24 503.334C2468.4 503.428 2468.63 503.565 2468.9 503.74C2469.46 504.089 2470.22 504.586 2471.04 505.178C2472.69 506.375 2474.5 507.906 2475.35 509.344C2475.78 510.059 2475.92 510.671 2475.79 511.173C2475.66 511.661 2475.24 512.191 2474.2 512.66C2473.15 513.13 2471.56 513.506 2469.23 513.713C2466.91 513.919 2463.89 513.955 2460.02 513.764C2452.5 513.391 2446.95 512.259 2443.03 510.842C2439.1 509.42 2436.85 507.729 2435.87 506.279C2435.38 505.558 2435.23 504.928 2435.28 504.43C2435.34 503.945 2435.6 503.52 2436.09 503.198C2437.09 502.535 2439.07 502.326 2441.81 503.233L2468.14 503.274Z" fill="#0C426F" stroke="#0038FF"/>
<path d="M2468.82 516.921L2468.88 516.915C2468.91 516.932 2468.95 516.952 2468.98 516.975C2469.14 517.068 2469.37 517.206 2469.65 517.38C2470.2 517.73 2470.96 518.227 2471.78 518.818C2473.43 520.016 2475.24 521.547 2476.1 522.985C2476.52 523.7 2476.66 524.311 2476.53 524.814C2476.4 525.302 2475.98 525.831 2474.94 526.3C2473.9 526.77 2472.3 527.146 2469.97 527.354C2467.65 527.56 2464.63 527.596 2460.76 527.404C2453.24 527.032 2447.69 525.9 2443.77 524.483C2439.84 523.06 2437.59 521.37 2436.61 519.919C2436.13 519.198 2435.97 518.569 2436.03 518.071C2436.08 517.585 2436.34 517.161 2436.83 516.839C2437.84 516.175 2439.81 515.967 2442.55 516.874C2444.31 517.458 2446.86 517.74 2449.65 517.845C2452.45 517.951 2455.54 517.88 2458.41 517.74C2461.28 517.599 2463.94 517.388 2465.88 517.213C2466.85 517.125 2467.64 517.046 2468.19 516.989C2468.46 516.96 2468.68 516.937 2468.82 516.921Z" fill="#0C426F" stroke="#0038FF"/>
<path d="M2739.32 381.709L2739.32 381.706C2755.55 363.881 2774.84 357.345 2794.86 358.549C2814.94 359.756 2835.79 368.751 2855.02 382.026C2874.25 395.299 2891.83 412.828 2905.38 431.051C2918.93 449.28 2928.41 468.167 2931.49 484.149C2934.57 500.172 2935.54 528.661 2934.11 561.163C2932.69 593.654 2928.88 630.11 2922.43 662.05C2919.21 678.02 2915.34 692.853 2910.77 705.492C2906.21 718.138 2900.97 728.558 2895.03 735.727C2889.1 742.894 2882.53 746.754 2875.28 746.438C2868.01 746.122 2859.92 741.603 2850.95 731.641C2773.75 645.836 2745.86 558.308 2737.26 492.238C2732.96 459.201 2733.48 431.528 2735.08 412.117C2735.88 402.412 2736.95 394.773 2737.82 389.563C2738.25 386.958 2738.64 384.96 2738.91 383.615C2739.05 382.943 2739.16 382.433 2739.23 382.092C2739.27 381.922 2739.3 381.794 2739.32 381.709Z" fill="#0C426F" stroke="#0038FF"/>
<path d="M2792.34 358.511C2787.76 398.567 2782.68 454.82 2806.27 516.069C2829.19 575.591 2854.39 610.403 2876.83 625.317C2888.05 632.78 2898.62 635.286 2907.87 633.347C2916.5 631.539 2923.89 625.882 2929.54 616.959C2924.54 658.601 2915.82 699.151 2902.97 723.499C2896.42 735.913 2888.87 743.984 2880.3 745.974C2871.78 747.953 2862.03 743.957 2850.94 731.641C2773.74 645.836 2745.85 558.307 2737.25 492.237C2732.95 459.2 2733.48 431.527 2735.08 412.117C2735.88 402.412 2736.94 394.773 2737.81 389.563C2738.24 386.958 2738.63 384.96 2738.9 383.615C2739.04 382.942 2739.15 382.432 2739.23 382.092C2739.26 381.921 2739.29 381.793 2739.31 381.708L2739.31 381.706C2754.86 364.633 2773.22 357.987 2792.34 358.511Z" fill="#0D3854" stroke="#0038FF"/>
</g>
<path d="M924.648 1100H1980.39V1769.6H924.648V1100Z" fill="white" stroke="#0038FF"/>
<path d="M1980.39 1099H924.648V974.048C924.648 959.952 938.449 948.371 955.67 948.371H1949.37C1966.59 948.371 1980.39 959.952 1980.39 974.048V1099Z" fill="#0C426F" stroke="#0038FF"/>
<path d="M1029.55 1023.68C1029.55 1034.12 1019.33 1042.72 1006.52 1042.72C993.706 1042.72 983.484 1034.12 983.484 1023.68C983.484 1013.25 993.706 1004.64 1006.52 1004.64C1019.33 1004.64 1029.55 1013.25 1029.55 1023.68Z" fill="#EA445A" stroke="#0038FF"/>
<path d="M1131.53 1023.68C1131.53 1034.12 1121.31 1042.72 1108.49 1042.72C1095.68 1042.72 1085.46 1034.12 1085.46 1023.68C1085.46 1013.25 1095.68 1004.64 1108.49 1004.64C1121.31 1004.64 1131.53 1013.25 1131.53 1023.68Z" fill="#1FC3F7" stroke="#0038FF"/>
<path d="M1233.51 1023.68C1233.51 1034.12 1223.29 1042.72 1210.48 1042.72C1197.67 1042.72 1187.45 1034.12 1187.45 1023.68C1187.45 1013.25 1197.67 1004.64 1210.48 1004.64C1223.29 1004.64 1233.51 1013.25 1233.51 1023.68Z" fill="#66A5D3" stroke="#0038FF"/>
<path d="M764.336 414.654C764.336 492.686 688.126 556.094 593.914 556.094C499.702 556.094 423.492 492.686 423.492 414.654C423.492 336.621 499.702 273.213 593.914 273.213C688.126 273.213 764.336 336.621 764.336 414.654Z" fill="#1FC3F7" stroke="#0038FF"/>
<mask id="path-84-inside-1_473_2" fill="white">
<path fill-rule="evenodd" clip-rule="evenodd" d="M716.4 399.516C711.657 374.489 697.587 353.704 674.713 337.062C656.401 323.738 635.053 315.7 610.959 312.718C608.035 312.358 605.095 312.084 602.163 311.768C596.68 311.768 591.197 311.768 585.714 311.768C582.385 312.147 579.041 312.494 575.72 312.917C551.073 316.048 529.53 324.663 511.114 338.547C490.626 354.002 477.266 373.023 472.277 395.665C465.358 427.053 474.424 455.292 498.742 479.916C517.652 499.067 542.015 511.236 571.382 515.703C607.855 521.25 641.007 514.255 670.15 495.278C695.246 478.941 710.513 457.46 716.16 431.346C716.871 428.066 717.26 424.749 717.806 421.45C717.806 416.897 717.806 412.344 717.806 407.79C717.335 405.032 716.916 402.268 716.4 399.516ZM588.975 375.29C588.983 386.403 588.96 397.522 589.005 408.629C589.013 409.921 588.736 410.542 586.918 410.53C571.681 410.474 556.444 410.499 541.214 410.492C540.818 410.492 540.421 410.443 539.524 410.387C539.771 406.281 539.651 402.312 540.302 398.429C541.85 389.248 543.773 380.104 545.523 370.942C545.717 369.91 546.196 369.376 547.587 369.625C560.85 372.004 574.307 373.041 587.838 373.482C588.145 373.488 588.452 373.6 588.855 373.681C588.893 374.246 588.975 374.768 588.975 375.29ZM574.075 326.459C578.914 323.154 584.696 320.874 588.803 320.694C588.803 335.453 588.803 350.2 588.803 365.078C581.061 365.494 557.267 363.276 548.552 361.288C550.789 356.766 552.801 352.207 555.262 347.827C559.84 339.702 565.607 332.242 574.075 326.459ZM563.76 323.477C552.203 333.925 545.052 346.368 539.546 359.642C529.291 357.356 519.514 354.462 509.985 350.262C524.945 336.95 542.763 328.074 563.76 323.477ZM502.901 357.269C514.293 360.934 525.267 364.463 536.524 368.078C532.238 381.638 529.934 395.82 529.523 410.356C513.141 410.356 496.834 410.356 480.154 410.356C481.298 390.552 488.891 372.78 502.901 357.269ZM502.916 471.946C488.958 456.653 481.395 438.856 480.131 418.841C496.73 418.841 512.992 418.841 529.5 418.841C529.949 433.278 532.171 447.478 536.532 461.15C525.394 464.728 514.413 468.256 502.916 471.946ZM510.112 478.91C519.499 474.779 529.216 471.903 539.516 469.586C545.044 482.792 552.12 495.272 563.909 505.621C551.597 505.422 521.534 490.501 510.112 478.91ZM588.811 508.888C586.664 508.292 584.622 507.857 582.699 507.174C576.431 504.931 571.412 501.316 567.066 497.017C558.389 488.439 553.018 478.444 548.769 467.797C562.039 465.411 575.286 464.386 588.811 464.051C588.811 478.928 588.811 493.675 588.811 508.888ZM588.968 454.336C588.968 454.727 588.863 455.118 588.788 455.653C584.091 455.907 579.423 455.982 574.8 456.435C566.026 457.305 557.252 458.299 548.522 459.454C546.391 459.734 545.8 459.386 545.321 457.703C541.805 445.36 539.95 432.855 539.643 420.183C539.636 419.792 539.718 419.394 539.771 418.885C540.444 418.835 541.065 418.742 541.686 418.742C556.676 418.736 571.674 418.748 586.664 418.717C588.145 418.717 589.027 418.823 589.02 420.4C588.938 431.712 588.975 443.024 588.968 454.336ZM677.877 350.25C668.452 354.468 658.645 357.3 648.824 359.555C645.346 353.17 642.107 346.802 638.434 340.615C634.724 334.36 629.772 328.763 624.139 323.52C645.106 328.061 662.879 336.969 677.877 350.25ZM648.211 408.834C648.218 409.294 648.158 409.753 648.113 410.418C631.672 410.418 615.5 410.418 599.111 410.418C599.111 398.156 599.111 385.956 599.111 373.575C603.681 373.333 608.266 373.259 612.792 372.805C621.731 371.911 630.647 370.861 639.549 369.737C641.389 369.501 642.017 369.761 642.466 371.321C646.019 383.657 647.881 396.162 648.211 408.834ZM599.088 320.359C601.213 320.949 603.27 321.384 605.192 322.073C612.568 324.738 618.163 329.217 622.958 334.447C630.363 342.522 635.203 351.654 639.062 361.351C630.086 363.314 606.568 365.494 599.096 365.071C599.088 350.331 599.088 335.571 599.088 320.359ZM598.871 420.661C598.871 419.425 599.006 418.705 600.899 418.711C616.136 418.767 631.365 418.742 646.595 418.748C647.059 418.748 647.53 418.841 648.345 418.922C648.113 422.91 648.226 426.873 647.575 430.749C646.026 439.937 644.104 449.074 642.369 458.231C642.152 459.38 641.598 459.846 640.117 459.585C627.416 457.305 614.542 456.224 601.572 455.814C600.779 455.789 599.986 455.721 599.073 455.665C599.014 455.025 598.909 454.51 598.909 453.994C598.886 442.881 598.909 431.768 598.871 420.661ZM615.26 501.732C611.004 504.882 606.217 507.298 600.629 508.478C600.18 508.571 599.709 508.596 599.058 508.677C599.058 493.793 599.058 479.04 599.058 464.045C612.583 464.386 625.778 465.418 639.347 467.84C637.088 472.4 635.068 476.879 632.674 481.208C628.418 488.929 622.98 496.011 615.26 501.732ZM624.087 505.757C635.636 495.309 642.795 482.873 648.3 469.586C658.563 471.866 668.332 474.773 677.862 478.966C662.909 492.284 645.084 501.154 624.087 505.757ZM684.953 471.946C673.471 468.256 662.565 464.753 651.337 461.15C655.601 447.639 657.912 433.464 658.331 418.91C674.69 418.91 690.99 418.91 707.693 418.91C706.548 438.719 698.941 456.516 684.953 471.946ZM658.376 410.399C657.86 395.969 655.721 381.725 651.3 368.084C662.52 364.488 673.493 360.965 684.953 357.288C698.963 372.724 706.511 390.521 707.723 410.399C691.162 410.399 674.922 410.399 658.376 410.399Z"/>
</mask>
<path fill-rule="evenodd" clip-rule="evenodd" d="M716.4 399.516C711.657 374.489 697.587 353.704 674.713 337.062C656.401 323.738 635.053 315.7 610.959 312.718C608.035 312.358 605.095 312.084 602.163 311.768C596.68 311.768 591.197 311.768 585.714 311.768C582.385 312.147 579.041 312.494 575.72 312.917C551.073 316.048 529.53 324.663 511.114 338.547C490.626 354.002 477.266 373.023 472.277 395.665C465.358 427.053 474.424 455.292 498.742 479.916C517.652 499.067 542.015 511.236 571.382 515.703C607.855 521.25 641.007 514.255 670.15 495.278C695.246 478.941 710.513 457.46 716.16 431.346C716.871 428.066 717.26 424.749 717.806 421.45C717.806 416.897 717.806 412.344 717.806 407.79C717.335 405.032 716.916 402.268 716.4 399.516ZM588.975 375.29C588.983 386.403 588.96 397.522 589.005 408.629C589.013 409.921 588.736 410.542 586.918 410.53C571.681 410.474 556.444 410.499 541.214 410.492C540.818 410.492 540.421 410.443 539.524 410.387C539.771 406.281 539.651 402.312 540.302 398.429C541.85 389.248 543.773 380.104 545.523 370.942C545.717 369.91 546.196 369.376 547.587 369.625C560.85 372.004 574.307 373.041 587.838 373.482C588.145 373.488 588.452 373.6 588.855 373.681C588.893 374.246 588.975 374.768 588.975 375.29ZM574.075 326.459C578.914 323.154 584.696 320.874 588.803 320.694C588.803 335.453 588.803 350.2 588.803 365.078C581.061 365.494 557.267 363.276 548.552 361.288C550.789 356.766 552.801 352.207 555.262 347.827C559.84 339.702 565.607 332.242 574.075 326.459ZM563.76 323.477C552.203 333.925 545.052 346.368 539.546 359.642C529.291 357.356 519.514 354.462 509.985 350.262C524.945 336.95 542.763 328.074 563.76 323.477ZM502.901 357.269C514.293 360.934 525.267 364.463 536.524 368.078C532.238 381.638 529.934 395.82 529.523 410.356C513.141 410.356 496.834 410.356 480.154 410.356C481.298 390.552 488.891 372.78 502.901 357.269ZM502.916 471.946C488.958 456.653 481.395 438.856 480.131 418.841C496.73 418.841 512.992 418.841 529.5 418.841C529.949 433.278 532.171 447.478 536.532 461.15C525.394 464.728 514.413 468.256 502.916 471.946ZM510.112 478.91C519.499 474.779 529.216 471.903 539.516 469.586C545.044 482.792 552.12 495.272 563.909 505.621C551.597 505.422 521.534 490.501 510.112 478.91ZM588.811 508.888C586.664 508.292 584.622 507.857 582.699 507.174C576.431 504.931 571.412 501.316 567.066 497.017C558.389 488.439 553.018 478.444 548.769 467.797C562.039 465.411 575.286 464.386 588.811 464.051C588.811 478.928 588.811 493.675 588.811 508.888ZM588.968 454.336C588.968 454.727 588.863 455.118 588.788 455.653C584.091 455.907 579.423 455.982 574.8 456.435C566.026 457.305 557.252 458.299 548.522 459.454C546.391 459.734 545.8 459.386 545.321 457.703C541.805 445.36 539.95 432.855 539.643 420.183C539.636 419.792 539.718 419.394 539.771 418.885C540.444 418.835 541.065 418.742 541.686 418.742C556.676 418.736 571.674 418.748 586.664 418.717C588.145 418.717 589.027 418.823 589.02 420.4C588.938 431.712 588.975 443.024 588.968 454.336ZM677.877 350.25C668.452 354.468 658.645 357.3 648.824 359.555C645.346 353.17 642.107 346.802 638.434 340.615C634.724 334.36 629.772 328.763 624.139 323.52C645.106 328.061 662.879 336.969 677.877 350.25ZM648.211 408.834C648.218 409.294 648.158 409.753 648.113 410.418C631.672 410.418 615.5 410.418 599.111 410.418C599.111 398.156 599.111 385.956 599.111 373.575C603.681 373.333 608.266 373.259 612.792 372.805C621.731 371.911 630.647 370.861 639.549 369.737C641.389 369.501 642.017 369.761 642.466 371.321C646.019 383.657 647.881 396.162 648.211 408.834ZM599.088 320.359C601.213 320.949 603.27 321.384 605.192 322.073C612.568 324.738 618.163 329.217 622.958 334.447C630.363 342.522 635.203 351.654 639.062 361.351C630.086 363.314 606.568 365.494 599.096 365.071C599.088 350.331 599.088 335.571 599.088 320.359ZM598.871 420.661C598.871 419.425 599.006 418.705 600.899 418.711C616.136 418.767 631.365 418.742 646.595 418.748C647.059 418.748 647.53 418.841 648.345 418.922C648.113 422.91 648.226 426.873 647.575 430.749C646.026 439.937 644.104 449.074 642.369 458.231C642.152 459.38 641.598 459.846 640.117 459.585C627.416 457.305 614.542 456.224 601.572 455.814C600.779 455.789 599.986 455.721 599.073 455.665C599.014 455.025 598.909 454.51 598.909 453.994C598.886 442.881 598.909 431.768 598.871 420.661ZM615.26 501.732C611.004 504.882 606.217 507.298 600.629 508.478C600.18 508.571 599.709 508.596 599.058 508.677C599.058 493.793 599.058 479.04 599.058 464.045C612.583 464.386 625.778 465.418 639.347 467.84C637.088 472.4 635.068 476.879 632.674 481.208C628.418 488.929 622.98 496.011 615.26 501.732ZM624.087 505.757C635.636 495.309 642.795 482.873 648.3 469.586C658.563 471.866 668.332 474.773 677.862 478.966C662.909 492.284 645.084 501.154 624.087 505.757ZM684.953 471.946C673.471 468.256 662.565 464.753 651.337 461.15C655.601 447.639 657.912 433.464 658.331 418.91C674.69 418.91 690.99 418.91 707.693 418.91C706.548 438.719 698.941 456.516 684.953 471.946ZM658.376 410.399C657.86 395.969 655.721 381.725 651.3 368.084C662.52 364.488 673.493 360.965 684.953 357.288C698.963 372.724 706.511 390.521 707.723 410.399C691.162 410.399 674.922 410.399 658.376 410.399Z" fill="white" stroke="#0038FF" stroke-width="2" mask="url(#path-84-inside-1_473_2)"/>
<path d="M764.328 1195.48C764.328 1273.51 688.118 1336.92 593.906 1336.92C499.694 1336.92 423.484 1273.51 423.484 1195.48C423.484 1117.45 499.694 1054.04 593.906 1054.04C688.118 1054.04 764.328 1117.45 764.328 1195.48Z" fill="#66A5D3" stroke="#0038FF"/>
<path d="M494.989 1126.49L544.81 1167.87C543.406 1170.08 542.162 1173.94 544.338 1179.54C546.573 1185.29 552.405 1192.85 565.303 1202.39L565.356 1202.43L565.388 1202.46L565.396 1202.47L565.404 1202.47L565.42 1202.49L565.452 1202.51L565.484 1202.54L565.547 1202.59L565.673 1202.7L565.705 1202.72L565.72 1202.74L565.736 1202.75L565.799 1202.8L565.923 1202.9L565.931 1202.91L565.939 1202.92L565.946 1202.92L565.954 1202.93L565.97 1202.94L565.985 1202.96L566.047 1203.01L566.078 1203.03L566.093 1203.05L566.101 1203.05L566.108 1203.06L566.116 1203.06L566.124 1203.07L566.131 1203.08L566.139 1203.08L566.154 1203.1L566.17 1203.11L566.292 1203.21L566.353 1203.26L566.413 1203.31L566.534 1203.41L566.542 1203.42L566.549 1203.42L566.557 1203.43L566.564 1203.44L566.572 1203.44L566.579 1203.45L566.587 1203.46L566.594 1203.46L566.654 1203.51L566.714 1203.56L566.773 1203.61L566.803 1203.63L566.833 1203.66L566.862 1203.68L566.877 1203.7L566.892 1203.71L566.951 1203.76L566.98 1203.78L567.01 1203.81L567.068 1203.86L567.076 1203.86L567.083 1203.87L567.09 1203.87L567.098 1203.88L567.112 1203.89L567.127 1203.9L567.243 1204L567.475 1204.19L567.589 1204.29L567.646 1204.34L567.675 1204.36L567.689 1204.37L567.696 1204.38L567.703 1204.38L567.718 1204.39L567.732 1204.41L567.739 1204.41L567.746 1204.42L567.76 1204.43L567.817 1204.48L567.93 1204.57L567.986 1204.62L567.993 1204.62L568 1204.63L568.014 1204.64L568.021 1204.65L568.028 1204.65L568.042 1204.66L568.07 1204.69L568.084 1204.7L568.091 1204.7L568.098 1204.71L568.112 1204.72L568.126 1204.73L568.154 1204.76L568.21 1204.8L568.217 1204.81L568.224 1204.81L568.231 1204.82L568.238 1204.83L568.252 1204.84L568.266 1204.85L568.273 1204.86L568.28 1204.86L568.293 1204.87L568.321 1204.9L568.328 1204.9L568.335 1204.91L568.349 1204.92L568.356 1204.92L568.363 1204.93L568.37 1204.94L568.377 1204.94L568.487 1205.03L568.494 1205.04L568.501 1205.04L568.514 1205.06L568.542 1205.08L568.569 1205.1L568.576 1205.11L568.583 1205.11L568.59 1205.12L568.597 1205.12L568.706 1205.22L568.734 1205.24L568.74 1205.24L568.747 1205.25L568.761 1205.26L568.815 1205.31L568.924 1205.4L568.938 1205.41L568.951 1205.42L568.965 1205.43L568.971 1205.44L568.978 1205.44L568.992 1205.45L568.998 1205.46L569.005 1205.46L569.012 1205.47L569.019 1205.47L569.032 1205.49L569.032 1205.49L569.033 1205.49L569.036 1205.49L569.059 1205.51L569.239 1205.66L570.662 1206.84L581.98 1216.24L583.776 1217.73L585.717 1219.34C597.213 1230.07 606.301 1234.89 613.176 1236.73C619.977 1238.55 624.591 1237.45 627.186 1236.28L676.945 1277.6C668.93 1282.05 659.338 1283.45 650.329 1283.48C641.09 1283.52 632.514 1282.12 626.96 1281.14C612.851 1278.64 596.468 1270.1 581.74 1260.62C567.025 1251.14 554.016 1240.75 546.664 1234.6L546.661 1234.59C539.241 1228.48 526.728 1217.68 515.317 1205.46C503.887 1193.22 493.635 1179.64 490.636 1167.97C489.471 1163.36 487.789 1156.26 487.829 1148.62C487.868 1141.12 489.563 1133.14 494.989 1126.49ZM682.541 1273.76L632.287 1232.02L648.212 1218.8C650.083 1217.25 653.137 1217.26 655.009 1218.81L698.604 1255.01C699.523 1255.78 699.962 1256.76 699.964 1257.71C699.966 1258.67 699.53 1259.65 698.611 1260.41L682.541 1273.76ZM549.888 1163.6L499.641 1121.87L515.567 1108.64C517.431 1107.1 520.491 1107.1 522.348 1108.64L565.958 1144.86C566.873 1145.62 567.311 1146.6 567.312 1147.55C567.312 1148.51 566.877 1149.49 565.958 1150.25L549.888 1163.6Z" fill="white" stroke="#0038FF"/>
<path d="M593.906 998.169V587.41" stroke="#0038FF" stroke-width="3" stroke-miterlimit="10" stroke-linecap="round"/>
<path d="M1271.77 1222.73H1857.14V1242.9H1271.77V1222.73Z" fill="#0C426F" stroke="#0038FF"/>
<path d="M1271.77 1290.04H1857.14V1310.21H1271.77V1290.04Z" fill="#0C426F" stroke="#0038FF"/>
<path d="M1052.12 1357.36H1857.15V1377.53H1052.12V1357.36Z" fill="#0C426F" stroke="#0038FF"/>
<path d="M1052.12 1424.67H1857.15V1444.84H1052.12V1424.67Z" fill="#0C426F" stroke="#0038FF"/>
<path d="M1052.12 1491.98H1857.15V1512.15H1052.12V1491.98Z" fill="#0C426F" stroke="#0038FF"/>
<path d="M1052.12 1559.3H1857.15V1579.47H1052.12V1559.3Z" fill="#0C426F" stroke="#0038FF"/>
<path d="M1052.12 1626.62H1857.15V1646.79H1052.12V1626.62Z" fill="#0C426F" stroke="#0038FF"/>
<path d="M1052.12 1193.14H1193.3V1310.21H1052.12V1193.14Z" fill="#EA445A" stroke="#0038FF"/>
<path d="M812.367 414.66H2275.64" stroke="#0038FF" stroke-width="3" stroke-miterlimit="10" stroke-linecap="round"/>
<path d="M1164.15 784.25L1164.15 784.25L1239.01 841.878C1243.08 845.019 1245.22 849.217 1245.41 853.451C1245.61 857.685 1243.86 862 1240.08 865.385C1232.5 872.178 1219.67 872.585 1211.48 866.281L1136.64 808.647L1136.33 809.043L1136.64 808.647C1130.85 804.192 1129.03 797.625 1131.09 791.785L1131.21 791.443L1130.92 791.223L1118.03 781.308L1117.72 781.076L1117.42 781.306C1096.95 796.742 1069.74 806.164 1039.88 806.164C976.068 806.164 924.5 763.207 924.5 710.436C924.5 657.659 976.068 614.715 1039.88 614.715C1103.68 614.715 1155.24 657.659 1155.24 710.436C1155.24 733.353 1145.52 754.389 1129.3 770.887L1128.91 771.29L1129.35 771.634L1141.7 781.132L1141.92 781.3L1142.18 781.205C1149.37 778.581 1158.06 779.551 1164.15 784.25ZM957.535 710.436C957.535 748.327 994.487 778.9 1039.88 778.9C1085.26 778.9 1122.22 748.334 1122.22 710.436C1122.22 672.539 1085.26 641.973 1039.88 641.973C994.487 641.973 957.535 672.545 957.535 710.436Z" fill="#66A5D3" stroke="#0038FF"/>
<path d="M2536.85 1927.25H2664.98V1474" stroke="#0038FF" stroke-width="3" stroke-miterlimit="10" stroke-linecap="round"/>
<path d="M2014.54 1927.25H1051.62" stroke="#0038FF" stroke-width="3" stroke-miterlimit="10" stroke-linecap="round"/>
<path d="M2442.14 2039.56H2114.01C2086.32 2039.56 2064.03 2020.94 2064.03 1998.14V1856.35C2064.03 1833.55 2086.32 1814.92 2114.01 1814.92H2442.14C2469.84 1814.92 2492.12 1833.56 2492.12 1856.35V1998.14C2492.12 2020.94 2469.83 2039.56 2442.14 2039.56Z" fill="#1FC3F7" stroke="#0038FF"/>
<path d="M2140.02 2040.56H2200.6L2140.02 2090.87V2040.56Z" fill="#1FC3F7" stroke="#0038FF"/>
<path d="M2410.85 1927.24C2410.85 1937.61 2400.7 1946.16 2387.97 1946.16C2375.24 1946.16 2365.09 1937.61 2365.09 1927.24C2365.09 1916.88 2375.24 1908.33 2387.97 1908.33C2400.7 1908.33 2410.85 1916.88 2410.85 1927.24Z" fill="white" stroke="#0038FF"/>
<path d="M2300.95 1927.24C2300.95 1937.61 2290.8 1946.16 2278.07 1946.16C2265.34 1946.16 2255.19 1937.61 2255.19 1927.24C2255.19 1916.88 2265.34 1908.33 2278.07 1908.33C2290.8 1908.33 2300.95 1916.88 2300.95 1927.24Z" fill="white" stroke="#0038FF"/>
<path d="M2191.06 1927.24C2191.06 1937.61 2180.9 1946.16 2168.17 1946.16C2155.44 1946.16 2145.29 1937.61 2145.29 1927.24C2145.29 1916.88 2155.44 1908.33 2168.17 1908.33C2180.9 1908.33 2191.06 1916.88 2191.06 1927.24Z" fill="white" stroke="#0038FF"/>
<path d="M2236.26 274.01H1908.13C1880.44 274.01 1858.15 255.385 1858.15 232.586V90.7949C1858.15 68.0023 1880.43 49.3711 1908.13 49.3711H2236.26C2263.95 49.3711 2286.24 67.9962 2286.24 90.7949V232.586C2286.23 255.385 2263.95 274.01 2236.26 274.01Z" fill="#EA445A" stroke="#0038FF"/>
<path d="M2210.25 275.01V325.32L2149.67 275.01H2210.25Z" fill="#EA445A" stroke="#0038FF"/>
<path d="M2022.88 101.867H2210.24V115.527H2022.88V101.867Z" fill="white" stroke="#0038FF"/>
<path d="M1934.12 134.438H2210.24V148.097H1934.12V134.438Z" fill="white" stroke="#0038FF"/>
<path d="M1934.12 167.012H2210.24V180.672H1934.12V167.012Z" fill="white" stroke="#0038FF"/>
<path d="M1934.12 199.582H2210.24V213.242H1934.12V199.582Z" fill="white" stroke="#0038FF"/>
<path d="M593.903 769.291H561.55L577.655 746.123L577.655 746.123L593.903 722.761L610.143 746.123L626.248 769.291H593.903Z" fill="#0C426F" stroke="#0038FF"/>
<path d="M1803.8 414.659V387.798L1831.92 401.282L1859.83 414.659L1831.92 428.042L1831.92 428.042L1803.8 441.526V414.659Z" fill="#0C426F" stroke="#0038FF"/>
<path d="M2681.21 1689.11L2664.97 1712.48L2648.73 1689.11L2632.63 1665.95H2664.97H2697.33L2681.21 1689.11L2681.21 1689.11Z" fill="#0C426F" stroke="#0038FF"/>
<path d="M1075.26 1927.24V1954.11L1047.13 1940.63L1047.13 1940.63L1019.23 1927.25L1047.13 1913.87L1075.26 1900.38V1927.24Z" fill="#0C426F" stroke="#0038FF"/>
<path d="M1512.67 755.396H1545.01L1528.91 778.564L1512.67 801.926L1496.43 778.564L1480.32 755.396H1512.67Z" fill="#0C426F" stroke="#0038FF"/>
<path d="M1221.07 670.924H1512.66V902.831" stroke="#0038FF" stroke-width="3" stroke-miterlimit="10" stroke-linecap="round"/>
<path d="M2709.49 342.733C2709.46 342.234 2709.46 342.234 2709.46 342.234L2709.45 342.234L2709.44 342.235L2709.36 342.239C2709.3 342.242 2709.2 342.247 2709.08 342.253C2708.83 342.266 2708.45 342.284 2707.96 342.307C2706.97 342.351 2705.52 342.412 2703.66 342.478C2699.95 342.61 2694.6 342.759 2688.05 342.832C2674.97 342.978 2657.14 342.816 2638.15 341.588C2619.15 340.36 2599 338.065 2581.27 333.949C2564.28 330.003 2549.58 324.398 2540.24 316.507C2541.27 316.629 2542.79 316.802 2544.75 317.011C2548.69 317.433 2554.42 318.002 2561.55 318.589C2575.81 319.763 2595.67 321.01 2618.09 321.301C2662.9 321.885 2717.99 318.652 2758.91 303.346C2768.29 299.84 2775.41 298.211 2780.76 298.24C2786.09 298.268 2789.63 299.935 2791.93 302.994C2794.26 306.088 2795.38 310.683 2795.7 316.697C2796.01 322.7 2795.5 330.038 2794.64 338.552C2794.19 342.94 2793.65 347.635 2793.07 352.612C2789.21 386.043 2783.86 432.228 2796.26 483.674C2759.26 469.125 2745.02 443.747 2740.03 421.943C2737.51 410.942 2737.34 400.843 2737.8 393.493C2738.03 389.819 2738.42 386.834 2738.75 384.77C2738.91 383.738 2739.06 382.936 2739.17 382.393C2739.23 382.122 2739.27 381.916 2739.3 381.778C2739.32 381.709 2739.33 381.657 2739.34 381.623L2739.35 381.585L2739.35 381.576L2739.35 381.574C2739.35 381.574 2739.35 381.573 2739.32 381.567L2739.35 381.573L2739.55 380.718L2738.71 380.981L2738.86 381.458C2738.71 380.981 2738.71 380.981 2738.71 380.981L2738.7 380.983L2738.68 380.991L2738.58 381.022C2738.49 381.05 2738.35 381.092 2738.17 381.147C2737.82 381.256 2737.28 381.419 2736.58 381.629C2735.18 382.049 2733.11 382.661 2730.44 383.427C2725.09 384.96 2717.32 387.11 2707.63 389.579C2688.26 394.518 2661.24 400.732 2630.63 405.834C2569.39 416.042 2493.87 421.783 2436.56 404.02C2406.02 394.558 2388.94 378.546 2383.48 359.56C2378.33 341.63 2383.49 320.897 2397.74 300.272C2395.45 306.64 2392.71 318.863 2398.76 331.76C2406.82 348.953 2430.37 367.105 2490.63 374.289C2553.66 381.805 2608.42 374.031 2647.43 364.378C2666.93 359.552 2682.49 354.256 2693.19 350.164C2698.53 348.119 2702.66 346.375 2705.45 345.141C2706.85 344.524 2707.91 344.035 2708.63 343.699C2708.98 343.532 2709.25 343.403 2709.43 343.315C2709.53 343.271 2709.59 343.238 2709.64 343.216L2709.69 343.19L2709.7 343.183L2709.71 343.182C2709.71 343.181 2709.71 343.181 2709.49 342.733ZM2709.49 342.733L2709.46 342.234L2709.71 343.181L2709.49 342.733Z" fill="#0D3854" stroke="#0038FF"/>
</svg>
