<svg width="202" height="53" viewBox="0 0 1802 643" fill="none" xmlns="http://www.w3.org/2000/svg">
<path d="M885.551 361.689C875.941 361.689 868.789 358.942 864.099 353.451C859.409 347.959 857.062 339.586 857.062 328.334C857.062 317.081 859.379 308.708 864.013 303.216C868.703 297.725 875.884 294.978 885.551 294.978H921.849C921.505 287.945 919.932 283.157 917.129 280.611C914.327 277.999 909.521 276.693 902.713 276.693H892.759C887.039 276.693 882.776 277.161 879.974 278.099C877.171 278.969 875.198 280.577 874.053 282.922C873.023 285.735 871.964 287.678 870.878 288.749C869.791 289.82 868.161 290.356 865.987 290.356C863.584 290.356 861.696 289.587 860.323 288.046C858.95 286.438 858.55 284.328 859.122 281.716C860.838 274.147 864.413 268.621 869.848 265.139C875.34 261.588 882.977 259.814 892.759 259.814H902.713C914.155 259.814 922.621 263.029 928.113 269.459C933.605 275.889 936.351 285.801 936.351 299.198V353.25C936.351 358.876 933.948 361.689 929.143 361.689C924.337 361.689 921.935 358.876 921.935 353.25V348.729C915.813 357.369 906.889 361.689 895.162 361.689H885.551ZM885.551 344.81H895.162C899.396 344.81 903.37 344.374 907.089 343.504C910.808 342.566 913.983 340.892 916.614 338.481C919.304 336.07 921.076 332.62 921.935 328.133V311.857H885.551C879.888 311.857 876.112 312.962 874.224 315.172C872.393 317.383 871.479 321.769 871.479 328.334C871.479 334.965 872.393 339.385 874.224 341.595C876.112 343.739 879.888 344.81 885.551 344.81ZM977.606 361.689C972.801 361.689 970.398 358.876 970.398 353.25V268.253C970.398 262.627 972.801 259.814 977.606 259.814C982.411 259.814 984.814 262.627 984.814 268.253V271.569C990.877 263.732 999.802 259.814 1011.59 259.814H1016.39C1027.83 259.814 1036.3 263.029 1041.79 269.459C1047.28 275.889 1050.03 285.801 1050.03 299.198V353.25C1050.03 358.876 1047.63 361.689 1042.82 361.689C1038.02 361.689 1035.61 358.876 1035.61 353.25V299.198C1035.61 290.423 1034.24 284.495 1031.49 281.415C1028.81 278.266 1023.77 276.693 1016.39 276.693H1011.59C1004.72 276.693 998.744 277.631 993.652 279.506C988.56 281.314 985.615 284.194 984.814 288.146V353.25C984.814 358.876 982.411 361.689 977.606 361.689ZM1113.55 361.689C1102.16 361.689 1093.7 358.474 1088.15 352.044C1082.66 345.548 1079.91 335.634 1079.91 322.305V299.198C1079.91 285.801 1082.66 275.889 1088.15 269.459C1093.7 263.029 1102.16 259.814 1113.55 259.814H1146.84V228.669C1146.84 223.042 1149.24 220.229 1154.05 220.229C1158.85 220.229 1161.26 223.042 1161.26 228.669V353.25C1161.26 358.876 1158.85 361.689 1154.05 361.689C1149.24 361.689 1146.84 358.876 1146.84 353.25V351.843C1144.15 355.058 1140.63 357.504 1136.29 359.178C1131.94 360.851 1126.53 361.689 1120.07 361.689H1113.55ZM1113.55 344.81H1120.07C1127.62 344.81 1133.97 343.671 1139.12 341.395C1144.27 339.118 1146.84 335.634 1146.84 330.946V276.693H1113.55C1106.11 276.693 1101.05 278.3 1098.36 281.515C1095.67 284.664 1094.33 290.557 1094.33 299.198V322.305C1094.33 331.012 1095.67 336.94 1098.36 340.088C1101.1 343.237 1106.17 344.81 1113.55 344.81ZM1200.12 243.337C1194.68 243.337 1191.97 240.122 1191.97 233.692V227.764C1191.97 221.469 1194.68 218.32 1200.12 218.32H1205.1C1210.3 218.32 1212.9 221.469 1212.9 227.764V233.692C1212.9 240.122 1210.3 243.337 1205.1 243.337H1200.12ZM1202.52 361.689C1197.72 361.689 1195.31 358.876 1195.31 353.25V268.253C1195.31 262.627 1197.72 259.814 1202.52 259.814C1207.33 259.814 1209.73 262.627 1209.73 268.253V353.25C1209.73 358.876 1207.33 361.689 1202.52 361.689ZM1274.94 361.689C1263.56 361.689 1255.09 358.474 1249.54 352.044C1244.05 345.548 1241.31 335.634 1241.31 322.305V299.198C1241.31 285.801 1244.05 275.889 1249.54 269.459C1255.09 263.029 1263.56 259.814 1274.94 259.814H1308.24V228.669C1308.24 223.042 1310.64 220.229 1315.44 220.229C1320.25 220.229 1322.65 223.042 1322.65 228.669V353.25C1322.65 358.876 1320.25 361.689 1315.44 361.689C1310.64 361.689 1308.24 358.876 1308.24 353.25V351.843C1305.55 355.058 1302.03 357.504 1297.68 359.178C1293.34 360.851 1287.93 361.689 1281.46 361.689H1274.94ZM1274.94 344.81H1281.46C1289.02 344.81 1295.37 343.671 1300.51 341.395C1305.66 339.118 1308.24 335.634 1308.24 330.946V276.693H1274.94C1267.51 276.693 1262.44 278.3 1259.75 281.515C1257.07 284.664 1255.72 290.557 1255.72 299.198V322.305C1255.72 331.012 1257.07 336.94 1259.75 340.088C1262.5 343.237 1267.56 344.81 1274.94 344.81ZM1383.48 361.689C1373.87 361.689 1366.72 358.942 1362.03 353.451C1357.34 347.959 1354.99 339.586 1354.99 328.334C1354.99 317.081 1357.31 308.708 1361.94 303.216C1366.63 297.725 1373.81 294.978 1383.48 294.978H1419.78C1419.44 287.945 1417.86 283.157 1415.06 280.611C1412.26 277.999 1407.45 276.693 1400.64 276.693H1390.69C1384.97 276.693 1380.71 277.161 1377.9 278.099C1375.1 278.969 1373.13 280.577 1371.98 282.922C1370.95 285.735 1369.89 287.678 1368.81 288.749C1367.72 289.82 1366.09 290.356 1363.92 290.356C1361.51 290.356 1359.63 289.587 1358.25 288.046C1356.88 286.438 1356.48 284.328 1357.05 281.716C1358.77 274.147 1362.34 268.621 1367.78 265.139C1373.27 261.588 1380.91 259.814 1390.69 259.814H1400.64C1412.08 259.814 1420.55 263.029 1426.04 269.459C1431.53 275.889 1434.28 285.801 1434.28 299.198V353.25C1434.28 358.876 1431.88 361.689 1427.07 361.689C1422.27 361.689 1419.86 358.876 1419.86 353.25V348.729C1413.74 357.369 1404.82 361.689 1393.09 361.689H1383.48ZM1383.48 344.81H1393.09C1397.32 344.81 1401.3 344.374 1405.02 343.504C1408.74 342.566 1411.91 340.892 1414.54 338.481C1417.23 336.07 1419.01 332.62 1419.86 328.133V311.857H1383.48C1377.82 311.857 1374.04 312.962 1372.15 315.172C1370.32 317.383 1369.41 321.769 1369.41 328.334C1369.41 334.965 1370.32 339.385 1372.15 341.595C1374.04 343.739 1377.82 344.81 1383.48 344.81ZM1505.05 361.689C1493.73 361.689 1485.38 358.541 1480 352.245C1474.62 345.95 1471.93 336.236 1471.93 323.109V276.693H1463.52C1458.72 276.693 1456.31 273.88 1456.31 268.253C1456.31 262.627 1458.72 259.814 1463.52 259.814H1471.93V245.145C1471.93 239.519 1474.33 236.706 1479.14 236.706C1483.95 236.706 1486.35 239.519 1486.35 245.145V259.814H1506.08C1510.89 259.814 1513.29 262.627 1513.29 268.253C1513.29 273.88 1510.89 276.693 1506.08 276.693H1486.35V323.109C1486.35 331.615 1487.66 337.376 1490.3 340.39C1492.93 343.338 1497.85 344.81 1505.05 344.81C1507.29 344.81 1509.03 345.48 1510.29 346.82C1511.6 348.16 1512.26 350.302 1512.26 353.25C1512.26 358.876 1509.86 361.689 1505.05 361.689ZM1543.65 317.684V322.506C1543.65 331.147 1545 337.04 1547.68 340.189C1550.37 343.269 1555.44 344.81 1562.87 344.81H1576.95C1582.78 344.81 1587.1 344.174 1589.9 342.902C1592.71 341.63 1594.57 339.385 1595.48 336.17C1596.11 333.624 1596.97 331.683 1598.06 330.343C1599.2 329.003 1600.92 328.334 1603.2 328.334C1605.61 328.334 1607.44 329.071 1608.7 330.544C1609.96 332.017 1610.36 334.161 1609.9 336.974C1608.64 345.279 1605.26 351.476 1599.77 355.561C1594.28 359.646 1586.67 361.689 1576.95 361.689H1562.87C1551.49 361.689 1543.02 358.474 1537.47 352.044C1531.98 345.614 1529.24 335.768 1529.24 322.506V299.198C1529.24 285.6 1531.98 275.622 1537.47 269.258C1543.02 262.828 1551.49 259.679 1562.87 259.814H1576.95C1588.39 259.814 1596.85 263.029 1602.35 269.459C1607.84 275.823 1610.58 285.735 1610.58 299.198V309.245C1610.58 314.871 1608.18 317.684 1603.38 317.684H1543.65ZM1562.87 276.693C1555.44 276.558 1550.37 278.065 1547.68 281.214C1545 284.362 1543.65 290.356 1543.65 299.198V300.805H1596.17V299.198C1596.17 290.423 1594.82 284.495 1592.13 281.415C1589.5 278.266 1584.44 276.693 1576.95 276.693H1562.87Z" fill="black"/>
<path d="M264.058 462.156C259.64 462.156 257.43 458.501 257.43 451.187C257.43 446.31 258.314 440.949 260.081 435.102C261.847 428.762 263.613 423.399 265.381 419.013C268.032 412.185 273.112 403.655 280.622 393.418C288.132 383.18 296.082 373.185 304.477 363.436C312.868 353.684 319.274 346.131 323.692 340.768C330.318 333.452 336.723 325.899 342.908 318.1C349.532 310.298 355.718 302.742 361.46 295.428C379.573 271.541 397.905 249.116 416.459 228.152C435.455 206.7 455.552 181.11 476.755 151.371C483.824 140.157 489.788 128.212 494.648 115.538C499.507 102.376 501.937 89.455 501.937 76.7814C501.937 61.6683 497.741 49.2387 489.347 39.4884C480.955 29.7383 467.701 24.8632 449.59 24.8632C437.221 24.8632 426.838 27.2988 418.446 32.1737C410.497 37.0489 403.649 42.9 397.905 49.7226C388.186 61.4244 382.001 71.9063 379.353 81.1685C376.701 89.9428 373.829 102.376 370.738 118.462C369.856 124.312 366.319 128.7 360.135 131.627C354.394 134.55 348.209 136.99 341.583 138.938C334.957 140.401 329.436 142.109 325.018 144.057C323.251 145.032 321.263 146.252 319.053 147.712C317.287 149.176 315.298 149.908 313.091 149.908C310.88 149.908 309.557 148.932 309.114 146.984C308.673 144.545 308.45 142.593 308.45 141.133C308.45 138.206 308.45 135.526 308.45 133.087C308.45 130.651 308.673 128.456 309.114 126.508C314.857 95.7937 325.901 71.1745 342.246 52.65C359.032 34.1254 378.469 20.7161 400.557 12.4296C423.083 4.14309 445.613 0 468.142 0C482.278 0 497.297 2.67942 513.202 8.04238C529.103 12.9175 542.578 21.4479 553.62 33.6375C565.107 45.8232 570.847 63.132 570.847 85.5558C570.847 106.52 565.767 126.508 555.609 145.52C545.889 164.533 532.858 182.813 516.514 200.366C500.61 217.915 483.383 234.98 464.828 251.552C446.276 268.129 428.386 284.457 411.159 300.546C393.929 316.635 379.132 332.724 366.763 348.809C354.394 364.898 346.442 381.231 342.908 397.804C342.908 407.067 345.777 414.381 351.522 419.744C357.264 424.619 364.333 428.031 372.725 429.982C381.56 431.443 390.174 432.174 398.569 432.174C408.727 432.174 420.655 431.198 434.348 429.251C448.486 426.811 462.399 423.888 476.093 420.476C489.788 416.574 501.275 412.43 510.551 408.042C531.754 395.369 548.319 377.328 560.246 353.929C572.615 330.042 583.66 305.178 593.377 279.343C594.702 277.878 595.588 277.147 596.029 277.147C597.795 277.147 598.898 278.124 599.343 280.071C600.225 281.536 600.668 283.241 600.668 285.191V288.118C597.574 299.327 594.04 313.225 590.065 329.797C586.53 346.374 582.334 363.436 577.475 380.988C572.617 398.049 566.874 413.65 560.246 427.786C554.061 441.924 546.774 451.918 538.379 457.77C536.613 459.721 534.406 460.937 531.754 461.425C529.103 461.913 526.674 462.156 524.466 462.156C516.516 462.156 508.783 461.425 501.275 459.964C493.765 458.013 486.255 456.55 478.745 455.574C467.701 454.601 456.659 453.626 445.613 452.65C435.011 451.673 423.969 451.187 412.482 451.187C388.186 451.187 363.89 451.918 339.594 453.381C315.298 454.358 291.002 457.036 266.706 461.425C266.265 461.425 265.824 461.668 265.381 462.156C265.381 462.156 264.94 462.156 264.058 462.156Z" fill="black"/>
<path d="M188.781 602.812H48.8812C21.912 602.812 6.36739 591.984 2.24761 570.327C0.748872 563.907 0 557.091 0 549.871V354.95C0 338.105 4.3075 325.069 12.9225 315.844C21.912 306.219 35.3966 301.406 53.3754 301.406H188.781V377.811H150.576V342.918H44.9482V561.904H150.576V527.011H188.781V602.812Z" fill="black"/>
<path d="M840.937 442.062H701.037C674.069 442.062 658.523 431.234 654.404 409.577C652.905 403.157 652.156 396.341 652.156 389.121V194.2C652.156 177.355 656.464 164.318 665.079 155.095C674.069 145.469 687.553 140.656 705.531 140.656H840.937V217.061H802.731V182.167H697.105V401.154H802.731V366.261H840.937V442.062Z" fill="black"/>
<path d="M270.473 602.813C259.09 602.813 250.622 599.598 245.074 593.168C239.582 586.738 236.836 576.892 236.836 563.63V540.321C236.836 526.858 239.582 516.946 245.074 510.582C250.622 504.152 259.09 500.938 270.473 500.938H284.546C295.988 500.938 304.454 504.152 309.946 510.582C315.437 517.012 318.183 526.925 318.183 540.321V563.429C318.183 576.757 315.437 586.672 309.946 593.168C304.454 599.598 295.988 602.813 284.546 602.813H270.473ZM251.252 563.63C251.252 572.27 252.596 578.164 255.285 581.312C257.974 584.393 263.037 585.934 270.473 585.934H284.546C292.041 585.934 297.103 584.361 299.734 581.212C302.424 578.063 303.767 572.136 303.767 563.429V540.321C303.767 531.546 302.424 525.619 299.734 522.538C297.103 519.39 292.041 517.816 284.546 517.816H270.473C265.496 517.816 261.606 518.485 258.803 519.826C256.057 521.098 254.113 523.376 252.968 526.657C251.823 529.872 251.252 534.428 251.252 540.321V563.63ZM444.974 500.938C455.786 500.938 463.538 503.917 468.228 509.879C472.977 515.841 475.35 525.719 475.35 539.518V594.373C475.35 600 472.948 602.813 468.142 602.813C463.337 602.813 460.934 600 460.934 594.373V539.518C460.934 531.882 459.676 526.356 457.159 522.94C454.699 519.524 450.637 517.816 444.974 517.816H437.937C431.416 517.816 426.753 519.524 423.95 522.94C421.148 526.356 419.746 531.882 419.746 539.518V594.373C419.746 600 417.343 602.813 412.538 602.813C407.732 602.813 405.33 600 405.33 594.373V539.518C405.33 531.882 404.072 526.356 401.554 522.94C399.095 519.524 395.033 517.816 389.369 517.816H382.333C375.811 517.816 371.148 519.524 368.346 522.94C365.543 526.356 364.141 531.882 364.141 539.518V594.373C364.141 600 361.739 602.813 356.933 602.813C352.128 602.813 349.725 600 349.725 594.373V509.377C349.725 503.751 352.128 500.938 356.933 500.938C361.739 500.938 364.141 503.751 364.141 509.377V513.998C367.174 509.377 370.491 506.061 374.095 504.052C377.756 501.976 382.105 500.938 387.138 500.938H389.369C396.462 500.938 402.04 502.109 406.102 504.454C410.164 506.731 413.253 510.448 415.37 515.606C418.402 510.315 421.604 506.564 424.98 504.353C428.413 502.077 432.732 500.938 437.937 500.938H444.974ZM516.486 643C511.68 643 509.278 640.187 509.278 634.561V509.377C509.278 503.751 511.68 500.938 516.486 500.938C521.291 500.938 523.694 503.751 523.694 509.377V511.889C526.783 508.272 530.586 505.559 535.106 503.751C539.682 501.876 544.803 500.938 550.466 500.938H556.988C568.428 500.938 576.896 504.152 582.387 510.582C587.879 517.012 590.625 526.925 590.625 540.321V563.429C590.625 576.757 587.879 586.672 582.387 593.168C576.896 599.598 568.428 602.813 556.988 602.813H523.694V634.561C523.694 640.187 521.291 643 516.486 643ZM523.694 585.934H556.988C564.481 585.934 569.544 584.361 572.176 581.212C574.864 578.063 576.209 572.136 576.209 563.429V540.321C576.209 531.546 574.864 525.619 572.176 522.538C569.544 519.39 564.481 517.816 556.988 517.816H550.466C543.315 517.816 537.137 518.821 531.931 520.83C526.725 522.84 523.979 526.021 523.694 530.375V585.934ZM649.01 602.813C639.399 602.813 632.248 600.066 627.558 594.574C622.867 589.083 620.521 580.71 620.521 569.457C620.521 558.205 622.838 549.832 627.472 544.34C632.162 538.848 639.343 536.102 649.01 536.102H685.307C684.964 529.069 683.39 524.28 680.588 521.735C677.785 519.122 672.98 517.816 666.172 517.816H656.218C650.498 517.816 646.235 518.284 643.432 519.223C640.63 520.093 638.656 521.7 637.512 524.045C636.482 526.858 635.423 528.802 634.337 529.873C633.25 530.944 631.62 531.48 629.445 531.48C627.043 531.48 625.155 530.71 623.782 529.169C622.409 527.562 622.009 525.452 622.581 522.84C624.297 515.27 627.872 509.745 633.307 506.262C638.799 502.712 646.436 500.938 656.218 500.938H666.172C677.614 500.938 686.08 504.152 691.572 510.582C697.063 517.012 699.809 526.925 699.809 540.321V594.373C699.809 600 697.407 602.813 692.601 602.813C687.796 602.813 685.393 600 685.393 594.373V589.852C679.272 598.493 670.347 602.813 658.621 602.813H649.01ZM649.01 585.934H658.621C662.855 585.934 666.829 585.498 670.548 584.628C674.267 583.69 677.442 582.016 680.073 579.605C682.762 577.193 684.535 573.743 685.393 569.256V552.98H649.01C643.347 552.98 639.571 554.085 637.683 556.296C635.852 558.506 634.937 562.893 634.937 569.457C634.937 576.088 635.852 580.509 637.683 582.719C639.571 584.863 643.347 585.934 649.01 585.934ZM741.065 602.813C736.259 602.813 733.857 600 733.857 594.373V509.377C733.857 503.751 736.259 500.938 741.065 500.938C745.87 500.938 748.273 503.751 748.273 509.377V512.692C754.336 504.856 763.26 500.938 775.045 500.938H779.851C791.292 500.938 799.758 504.152 805.25 510.582C810.742 517.012 813.488 526.925 813.488 540.321V594.373C813.488 600 811.085 602.813 806.28 602.813C801.475 602.813 799.072 600 799.072 594.373V540.321C799.072 531.546 797.699 525.619 794.953 522.538C792.264 519.39 787.23 517.816 779.851 517.816H775.045C768.181 517.816 762.203 518.755 757.111 520.629C752.019 522.438 749.074 525.317 748.273 529.27V594.373C748.273 600 745.87 602.813 741.065 602.813ZM870.484 643C862.19 643 855.983 640.555 851.864 635.666C847.801 630.844 845.771 623.576 845.771 613.864C845.771 608.238 848.174 605.425 852.979 605.425C857.785 605.425 860.187 608.238 860.187 613.864C860.187 618.888 860.817 622.169 862.075 623.71C863.391 625.318 866.194 626.122 870.484 626.122H903.779C908.012 626.122 910.786 625.318 912.102 623.71C913.418 622.169 914.076 618.888 914.076 613.864V588.345C910.643 594.373 906.639 598.292 902.062 600.1C897.544 601.909 892.623 602.813 887.303 602.813H878.894C867.567 602.813 859.214 599.664 853.837 593.369C848.461 587.073 845.771 577.36 845.771 564.233V509.377C845.771 503.751 848.174 500.938 852.979 500.938C857.785 500.938 860.187 503.751 860.187 509.377V564.233C860.187 572.672 861.474 578.399 864.049 581.413C866.68 584.427 871.629 585.934 878.894 585.934H887.303C896.685 585.934 903.492 584.16 907.726 580.609C911.96 576.992 914.076 571.533 914.076 564.233V509.377C914.076 503.751 916.478 500.938 921.284 500.938C926.089 500.938 928.492 503.751 928.492 509.377V613.864C928.492 623.576 926.432 630.844 922.313 635.666C918.194 640.555 912.016 643 903.779 643H870.484Z" fill="black"/>
</svg>
