<svg width="95" height="36" viewBox="0 0 975 516" fill="none" xmlns="http://www.w3.org/2000/svg">
<path d="M975 471H792.696C757.554 471 737.297 459.827 731.93 437.48C729.975 430.856 729 423.823 729 416.374V215.248C729 197.867 734.613 184.415 745.84 174.898C757.554 164.965 775.125 160 798.553 160H975V238.836H925.214V202.832H787.573V428.789H925.214V392.786H975V471Z" fill="black"/>
<path d="M411.774 366C407.926 366 406 363.105 406 357.313C406 353.451 406.77 349.205 408.31 344.575C409.848 339.554 411.386 335.307 412.926 331.833C415.236 326.426 419.661 319.671 426.203 311.563C432.746 303.455 439.67 295.54 446.984 287.819C454.293 280.097 459.874 274.115 463.722 269.868C469.494 264.074 475.073 258.092 480.461 251.916C486.232 245.737 491.62 239.754 496.622 233.962C512.401 215.044 528.37 197.285 544.533 180.683C561.081 163.694 578.587 143.428 597.058 119.877C603.216 110.996 608.411 101.536 612.645 91.4991C616.877 81.076 618.994 70.843 618.994 60.8063C618.994 48.8376 615.339 38.9941 608.027 31.2725C600.716 23.551 589.17 19.6902 573.394 19.6902C562.619 19.6902 553.574 21.619 546.264 25.4796C539.339 29.3405 533.374 33.9742 528.37 39.3773C519.904 48.6444 514.516 56.9455 512.209 64.2806C509.899 71.2293 507.397 81.076 504.704 93.8144C503.936 98.448 500.855 101.922 495.468 104.241C490.468 106.556 485.08 108.488 479.307 110.03C473.535 111.189 468.726 112.542 464.878 114.084C463.338 114.857 461.607 115.823 459.681 116.979C458.143 118.138 456.41 118.718 454.487 118.718C452.562 118.718 451.409 117.945 451.023 116.402C450.639 114.471 450.445 112.925 450.445 111.769C450.445 109.451 450.445 107.329 450.445 105.397C450.445 103.468 450.639 101.729 451.023 100.187C456.026 75.8629 465.646 56.3659 479.884 41.6957C494.507 27.0253 511.439 16.4059 530.68 9.84346C550.303 3.28108 569.93 0 589.555 0C601.869 0 614.952 2.12194 628.807 6.36908C642.658 10.2299 654.397 16.9854 664.016 26.6389C674.022 36.2892 679.023 49.9967 679.023 67.755C679.023 84.3573 674.598 100.187 665.749 115.243C657.281 130.3 645.93 144.777 631.693 158.678C617.839 172.575 602.832 186.09 586.668 199.214C570.507 212.342 554.923 225.273 539.916 238.015C524.906 250.756 512.016 263.498 501.242 276.236C490.468 288.978 483.54 301.912 480.461 315.037C480.461 322.373 482.961 328.165 487.965 332.412C492.967 336.273 499.125 338.975 506.436 340.52C514.132 341.677 521.635 342.256 528.949 342.256C537.798 342.256 548.188 341.483 560.117 339.941C572.432 338.009 584.552 335.694 596.481 332.992C608.411 329.901 618.417 326.62 626.498 323.145C644.968 313.108 659.398 298.822 669.788 280.291C680.563 261.373 690.185 241.683 698.649 221.223C699.803 220.063 700.575 219.484 700.959 219.484C702.497 219.484 703.459 220.257 703.846 221.799C704.614 222.959 705 224.31 705 225.854V228.172C702.305 237.049 699.226 248.056 695.764 261.179C692.684 274.307 689.029 287.819 684.797 301.719C680.564 315.231 675.562 327.586 669.788 338.781C664.4 349.977 658.053 357.892 650.739 362.526C649.201 364.071 647.278 365.034 644.968 365.421C642.658 365.807 640.543 366 638.619 366C631.694 366 624.958 365.421 618.417 364.264C611.875 362.719 605.333 361.56 598.791 360.787C589.17 360.017 579.552 359.245 569.93 358.472C560.694 357.698 551.075 357.313 541.069 357.313C519.904 357.313 498.739 357.892 477.575 359.051C456.41 359.824 435.245 361.945 414.08 365.421C413.696 365.421 413.312 365.613 412.926 366C412.926 366 412.542 366 411.774 366Z" fill="black"/>
<path d="M406 471H223.697C188.553 471 168.297 459.827 162.929 437.48C160.976 430.856 160 423.823 160 416.374V215.248C160 197.867 165.613 184.416 176.839 174.897C188.553 164.966 206.125 160 229.553 160H406V238.836H356.215V202.833H218.572V428.789H356.215V392.786H406V471Z" fill="black"/>
</svg>
